<?xml version="1.0" encoding="UTF-8"?>
<svg width="600px" height="93px" viewBox="0 0 600 93" version="1.1" xmlns="http://www.w3.org/2000/svg" xmlns:xlink="http://www.w3.org/1999/xlink">
    <title>appsumo-logo-vector</title>
    <g id="Page-1" stroke="none" stroke-width="1" fill="none" fill-rule="evenodd">
        <g id="Artboard" transform="translate(-412.000000, -880.000000)" fill="#6B7280" fill-rule="nonzero">
            <g id="appsumo-logo-vector" transform="translate(412.000000, 880.000000)">
                <path d="M378.8,56.8 C378.8,72.4 371.6,72.4 368,72.4 C364.4,72.4 357.2,72.4 357.2,56.8 L357.2,12.8 L338.8,12.8 L338.8,59.6 C338.8,77.6 350.8,90.4 368,90.4 C385.2,90.4 397.2,77.6 397.2,59.6 L397.2,12.8 L378.8,12.8 L378.8,56.8 Z M559.2,10.4 C536.8,10.4 518.4,28.4 518.4,51.2 C518.4,73.6 536.8,92 559.2,92 C581.6,92 600,73.6 600,51.2 C600,28.8 581.6,10.4 559.2,10.4 Z M559.2,73.2 C546.8,73.2 537.2,63.2 537.2,50.8 C537.2,38.8 546.8,28.8 558.8,28.4 C570.8,28.4 580.8,38 581.2,50 L581.2,50.4 C581.2,63.2 571.2,73.2 559.2,73.2 Z M41.2,0 L0,89.6 L20.8,89.6 L28.8,72.4 L53.6,72.4 L61.6,89.6 L82.4,89.6 L41.2,0 Z M33.2,57.2 L40.8,38.4 L48.4,57.2 L33.2,57.2 Z M130,13.2 L100,13.2 L100,88.8 L118.8,88.8 L118.8,67.2 L128.8,67.2 C147.2,67.2 158.8,56.8 158.8,40 L158.8,39.6 C159.2,23.2 148,13.2 130,13.2 Z M140,40.8 C140,47.2 135.6,51.2 128.4,51.2 L118.8,51.2 L118.8,30.4 L128.4,30.4 C136,30 140,34 140,40.8 L140,40.8 Z M207.6,13.2 L177.6,13.2 L177.6,88.8 L196.4,88.8 L196.4,67.2 L206.4,67.2 C224.8,67.2 236.4,56.8 236.4,40 L236.4,39.6 C236.8,23.2 225.6,13.2 207.6,13.2 Z M217.6,40.8 C217.6,47.2 213.2,51.2 206,51.2 L196.4,51.2 L196.4,30.4 L206,30.4 C213.6,30 217.6,34 217.6,40.8 L217.6,40.8 Z M292.4,37.2 C277.6,33.2 274.4,31.6 274.4,26.4 L274.4,26 C274.4,22 278.4,19.2 284.8,19.2 C292.8,19.6 300.4,22.4 306.8,27.6 L307.2,28 L317.6,12.8 L317.2,12.4 C308,5.2 296.4,1.2 284.8,1.2 C266.8,1.2 254,12 254,27.6 L254,28 C254,46 266.4,50.8 283.2,54.8 C297.6,58.4 300,60.8 300,65.2 L300,65.6 C300,70.4 295.6,73.2 288.4,73.2 C279.2,72.8 270,69.2 263.2,62.8 L262.8,62.4 L250.8,76.8 L251.2,77.2 C261.2,86.4 274.4,91.2 288,91.2 C308,91.2 320.4,80.8 320.4,64 L320.4,63.6 C320.4,47.6 309.2,41.2 292.4,37.2 Z M459.2,92.8 L436.4,54.4 L429.6,90 L413.2,90 L430,10.4 L459.6,60.4 L487.6,10.4 L504.4,90 L486.8,90 L480.4,54.8 L459.2,92.8 Z" id="Shape"></path>
            </g>
        </g>
    </g>
</svg>