<?xml version="1.0" encoding="UTF-8"?>
<svg width="601px" height="133px" viewBox="0 0 601 133" version="1.1" xmlns="http://www.w3.org/2000/svg" xmlns:xlink="http://www.w3.org/1999/xlink">
    <title>capterra-inc-vector-logo</title>
    <g id="Page-1" stroke="none" stroke-width="1" fill="none" fill-rule="evenodd">
        <g id="Artboard" transform="translate(-412.000000, -719.000000)" fill="#6B7280" fill-rule="nonzero">
            <g id="capterra-inc-vector-logo" transform="translate(412.400000, 719.300000)">
                <polygon id="Path" points="0 48.7 55 48.7 88.4 48.7 88.4 15.6"></polygon>
                <polygon id="Path" points="88.4 15.6 88.4 132.6 130.2 0"></polygon>
                <polygon id="Path" points="88.4 48.7 55 48.7 88.4 132.5 88.4 48.7"></polygon>
                <polygon id="Path" points="0 48.7 63.6 70.2 55 48.7"></polygon>
                <path d="M202.6,101.7 C202.1,102.2 201.3,102.8 200.2,103.5 C199.1,104.2 197.6,105 195.8,105.7 C194,106.4 191.8,107.1 189.1,107.6 C186.5,108.1 183.5,108.4 180.1,108.4 C173.6,108.4 167.9,107.3 163.1,105.3 C158.3,103.2 154.4,100.3 151.3,96.5 C148.2,92.7 145.9,88.3 144.5,83.2 C143,78.1 142.3,72.4 142.3,66.3 C142.3,60.2 143.1,54.5 144.7,49.3 C146.3,44.1 148.6,39.6 151.8,35.8 C154.9,32 158.9,29 163.6,26.9 C168.3,24.8 173.9,23.7 180.3,23.7 C183.4,23.7 186.3,24 188.8,24.5 C191.3,25.1 193.6,25.7 195.5,26.5 C197.4,27.3 199,28.1 200.2,28.9 C201.5,29.7 202.4,30.5 203,31 C203.7,31.6 204.4,32.4 204.9,33.3 C205.4,34.2 205.7,35.2 205.7,36.2 C205.7,37.8 205.1,39.4 203.9,41 C202.7,42.6 201.4,44.1 199.9,45.5 C198.9,44.5 197.8,43.5 196.6,42.5 C195.4,41.5 194,40.6 192.5,39.8 C191,39 189.3,38.4 187.4,37.9 C185.5,37.4 183.4,37.1 181,37.1 C176.9,37.1 173.4,37.9 170.6,39.6 C167.8,41.3 165.6,43.4 163.9,46.1 C162.2,48.8 161,51.8 160.3,55.2 C159.6,58.6 159.2,62.1 159.2,65.7 C159.2,69.5 159.6,73.1 160.3,76.6 C161,80.1 162.3,83.1 164.1,85.8 C165.9,88.5 168.2,90.6 171.1,92.2 C174,93.8 177.5,94.6 181.8,94.6 C184.1,94.6 186.1,94.3 188,93.8 C189.9,93.2 191.6,92.5 193,91.7 C194.5,90.9 195.7,90 196.8,89.2 C197.9,88.3 198.8,87.5 199.5,86.9 C200,87.5 200.5,88.2 201.2,89 C201.9,89.8 202.5,90.7 203,91.5 C203.6,92.4 204,93.3 204.5,94.2 C204.9,95.1 205.1,95.9 205.1,96.6 C205.1,97.7 204.9,98.5 204.5,99.3 C204.1,100 203.4,100.8 202.6,101.7 L202.6,101.7 Z M265,92.4 C265,98.8 265.9,103.5 267.8,106.4 C266.3,107 265,107.4 263.7,107.6 C262.4,107.8 261.1,108 259.7,108 C256.8,108 254.6,107.4 253.1,106.3 C251.6,105.2 250.6,103.5 250.2,101.4 C248.4,103.3 246.1,104.9 243.1,106.2 C240.2,107.5 236.6,108.1 232.4,108.1 C230.2,108.1 228,107.8 225.8,107.2 C223.6,106.6 221.6,105.6 219.8,104.2 C218,102.8 216.6,101 215.4,98.7 C214.3,96.4 213.7,93.6 213.7,90.3 C213.7,86.2 214.7,82.8 216.7,80.2 C218.7,77.6 221.2,75.6 224.2,74.1 C227.2,72.6 230.5,71.6 233.9,71 C237.4,70.4 240.6,70.1 243.5,69.9 C244.5,69.8 245.4,69.8 246.4,69.8 L249,69.8 L249,67.6 C249,64.5 248.2,62.3 246.5,60.9 C244.8,59.6 242.1,58.9 238.4,58.9 C234.9,58.9 231.8,59.5 229.1,60.6 C226.4,61.7 223.7,63 221.1,64.5 C220,63.1 219,61.6 218.4,59.9 C217.7,58.2 217.4,57 217.4,56.2 C217.4,55.1 218,54 219.3,52.9 C220.6,51.8 222.3,50.9 224.5,50 C226.7,49.1 229.2,48.5 232.1,47.9 C234.9,47.4 237.9,47.1 241.1,47.1 C245.5,47.1 249.2,47.5 252.2,48.4 C255.2,49.3 257.7,50.7 259.6,52.5 C261.5,54.4 262.9,56.7 263.7,59.5 C264.5,62.3 264.9,65.6 264.9,69.3 L265,92.4 L265,92.4 Z M249.4,78.3 L247.7,78.3 C247.1,78.3 246.6,78.3 246,78.4 C244,78.6 242,78.8 240,79.1 C238,79.4 236.2,80 234.7,80.8 C233.2,81.6 231.9,82.7 230.9,84 C229.9,85.3 229.4,87 229.4,89 C229.4,91.3 230,93.2 231.3,94.8 C232.6,96.4 234.8,97.2 237.9,97.2 C239.4,97.2 240.9,97 242.3,96.6 C243.7,96.2 244.9,95.7 246,95 C247.1,94.3 247.9,93.6 248.5,92.9 C249.1,92.1 249.4,91.4 249.4,90.8 L249.4,78.3 L249.4,78.3 Z M295.3,54.3 C296.6,52.8 298.6,51.2 301.4,49.6 C304.2,48 307.6,47.2 311.8,47.2 C314.8,47.2 317.7,47.7 320.4,48.7 C323.1,49.7 325.5,51.4 327.6,53.6 C329.7,55.9 331.4,58.9 332.6,62.6 C333.9,66.3 334.5,70.9 334.5,76.4 C334.5,82.7 333.8,88 332.3,92.1 C330.8,96.2 329,99.5 326.7,101.8 C324.4,104.2 321.8,105.9 319,106.9 C316.2,107.9 313.3,108.4 310.5,108.4 C308.2,108.4 306.1,108.1 304.4,107.6 C302.7,107.1 301.2,106.5 300,105.8 C298.8,105.2 297.9,104.5 297.2,103.9 C296.6,103.3 296.1,102.8 296,102.6 L296,132.6 L279.4,132.6 L279.4,49 C279.8,48.9 280.3,48.8 280.9,48.8 C281.4,48.7 282,48.7 282.6,48.6 C283.3,48.6 284,48.5 284.9,48.5 C287.6,48.5 289.9,48.9 291.8,49.8 C293.6,50.7 294.8,52.2 295.3,54.3 L295.3,54.3 Z M317.3,76.8 C317.3,74.4 317.1,72.1 316.7,70 C316.3,67.9 315.6,66.1 314.7,64.5 C313.8,63 312.5,61.8 310.9,60.9 C309.3,60 307.4,59.6 305.1,59.6 C301.7,59.6 299.3,60.3 298,61.5 C296.7,62.8 296,64.2 296,65.8 L296,91.7 C296.6,92.4 297.8,93.1 299.5,94 C301.2,94.9 303.1,95.3 305.3,95.3 C309.4,95.3 312.4,93.7 314.4,90.4 C316.3,87.2 317.3,82.7 317.3,76.8 Z M347.3,97.8 C346.7,96.2 346.4,94.5 346.2,92.7 C346,90.9 346,89.1 346,87.3 L346,30.8 C346.6,30.7 347.2,30.6 347.8,30.6 C348.4,30.5 349,30.5 349.6,30.4 C350.2,30.4 350.9,30.3 351.5,30.3 C352.8,30.3 354.1,30.4 355.4,30.7 C356.7,30.9 357.9,31.4 358.9,32.2 C360,32.9 360.8,33.9 361.5,35.2 C362.1,36.5 362.5,38.1 362.5,40.1 L362.5,48.8 L379.6,48.8 L379.6,61.1 L362.6,61.1 L362.6,87.1 C362.6,92.8 364.9,95.6 369.5,95.6 C370.6,95.6 371.7,95.4 372.7,95.1 C373.7,94.7 374.6,94.3 375.4,93.9 C376.2,93.5 376.9,93 377.5,92.5 C378.1,92 378.5,91.6 378.8,91.4 C380,93.2 381,94.7 381.6,96 C382.2,97.3 382.6,98.5 382.6,99.7 C382.6,100.8 382.2,101.8 381.3,102.8 C380.4,103.8 379.2,104.8 377.7,105.6 C376.2,106.5 374.3,107.2 372.1,107.7 C369.9,108.2 367.5,108.5 364.9,108.5 C359.9,108.5 355.9,107.5 353.1,105.6 C350.5,103.5 348.5,101 347.3,97.8 L347.3,97.8 Z M421.6,96.2 C423.6,96.2 425.4,96 427,95.5 C428.5,95.1 429.9,94.5 431.2,93.9 C432.4,93.3 433.5,92.5 434.4,91.8 C435.3,91 436.1,90.3 436.8,89.7 C437.8,90.9 438.8,92.5 439.9,94.4 C441,96.3 441.5,97.9 441.5,99.1 C441.5,100.9 440.5,102.5 438.5,104 C436.8,105.3 434.4,106.4 431.2,107.4 C428.1,108.3 424.4,108.8 420.2,108.8 C416.4,108.8 412.6,108.3 408.9,107.3 C405.2,106.3 401.9,104.6 399,102.2 C396.1,99.8 393.8,96.5 392,92.4 C390.2,88.3 389.3,83.1 389.3,76.9 C389.3,71.8 390.1,67.4 391.7,63.7 C393.3,60 395.4,56.9 398,54.5 C400.6,52.1 403.6,50.3 407,49.1 C410.3,48 413.7,47.4 417.2,47.4 C421.7,47.4 425.6,48.1 428.8,49.5 C432,50.9 434.5,52.8 436.5,55.2 C438.5,57.6 439.9,60.3 440.8,63.4 C441.7,66.5 442.1,69.7 442.1,73.1 L442.1,74.8 C442.1,75.5 442.1,76.1 442,76.9 C442,77.6 441.9,78.3 441.9,79 C441.9,79.7 441.8,80.2 441.7,80.6 L405.8,80.6 C406.1,85.1 407.5,88.8 410,91.8 C412.4,94.7 416.3,96.2 421.6,96.2 L421.6,96.2 Z M427.2,71.5 C427.2,67.6 426.4,64.4 424.9,62 C423.4,59.6 420.7,58.3 416.8,58.3 C413.4,58.3 410.8,59.5 408.8,61.8 C406.8,64.1 405.8,67.3 405.8,71.5 L427.2,71.5 L427.2,71.5 Z M471,54.6 C471.5,53.9 472.1,53.1 472.9,52.2 C473.7,51.3 474.7,50.5 475.9,49.8 C477.1,49.1 478.4,48.5 479.8,48 C481.2,47.5 482.7,47.3 484.4,47.3 C485.4,47.3 486.4,47.4 487.5,47.5 C488.6,47.7 489.6,48 490.5,48.4 C491.4,48.8 492.2,49.4 492.8,50.2 C493.4,51 493.7,51.9 493.7,53 C493.7,54.8 493.3,56.8 492.4,59.1 C491.5,61.4 490.6,63.4 489.7,65 C488.3,63.9 486.9,63 485.6,62.4 C484.2,61.8 482.6,61.5 480.7,61.5 C478.2,61.5 476.1,62.2 474.4,63.7 C472.7,65.2 471.8,66.9 471.8,69 L471.8,108.4 L455.2,108.4 L455.2,48.9 C455.6,48.8 456.1,48.7 456.7,48.7 C457.2,48.6 457.8,48.6 458.4,48.5 C459,48.5 459.8,48.4 460.7,48.4 C463.3,48.4 465.6,48.9 467.5,49.9 C469.3,51 470.5,52.5 471,54.6 L471,54.6 Z M518.1,54.6 C518.6,53.9 519.2,53.1 520,52.2 C520.8,51.3 521.8,50.5 523,49.8 C524.2,49.1 525.5,48.5 526.9,48 C528.3,47.5 529.8,47.3 531.5,47.3 C532.5,47.3 533.5,47.4 534.6,47.5 C535.7,47.7 536.7,48 537.6,48.4 C538.5,48.8 539.3,49.4 539.9,50.2 C540.5,51 540.8,51.9 540.8,53 C540.8,54.8 540.4,56.8 539.5,59.1 C538.6,61.4 537.7,63.4 536.8,65 C535.4,63.9 534,63 532.7,62.4 C531.3,61.8 529.7,61.5 527.8,61.5 C525.3,61.5 523.2,62.2 521.5,63.7 C519.8,65.2 518.9,66.9 518.9,69 L518.9,108.4 L502.3,108.4 L502.3,48.9 C502.7,48.8 503.2,48.7 503.8,48.7 C504.3,48.6 504.9,48.6 505.5,48.5 C506.1,48.5 506.9,48.4 507.8,48.4 C510.4,48.4 512.7,48.9 514.6,49.9 C516.4,51 517.6,52.5 518.1,54.6 L518.1,54.6 Z M597.2,92.4 C597.2,98.8 598.1,103.5 600,106.4 C598.5,107 597.2,107.4 595.9,107.6 C594.6,107.8 593.3,108 591.9,108 C589,108 586.8,107.4 585.3,106.3 C583.8,105.2 582.8,103.5 582.4,101.4 C580.6,103.3 578.3,104.9 575.3,106.2 C572.4,107.5 568.8,108.1 564.6,108.1 C562.4,108.1 560.2,107.8 558,107.2 C555.8,106.6 553.8,105.6 552,104.2 C550.2,102.8 548.8,101 547.6,98.7 C546.5,96.4 545.9,93.6 545.9,90.3 C545.9,86.2 546.9,82.8 548.9,80.2 C550.9,77.6 553.4,75.6 556.4,74.1 C559.4,72.6 562.7,71.6 566.1,71 C569.6,70.4 572.8,70.1 575.7,69.9 C576.7,69.8 577.6,69.8 578.6,69.8 L581.2,69.8 L581.2,67.6 C581.2,64.5 580.4,62.3 578.7,60.9 C577,59.6 574.3,58.9 570.6,58.9 C567.1,58.9 564,59.5 561.3,60.6 C558.6,61.7 555.9,63 553.3,64.5 C552.2,63.1 551.2,61.6 550.6,59.9 C549.9,58.2 549.6,57 549.6,56.2 C549.6,55.1 550.2,54 551.5,52.9 C552.8,51.8 554.5,50.9 556.7,50 C558.9,49.1 561.4,48.5 564.3,47.9 C567.1,47.4 570.1,47.1 573.3,47.1 C577.7,47.1 581.4,47.5 584.4,48.4 C587.4,49.3 589.9,50.7 591.8,52.5 C593.7,54.4 595.1,56.7 595.9,59.5 C596.7,62.3 597.1,65.6 597.1,69.3 L597.2,92.4 L597.2,92.4 Z M581.6,78.3 L579.9,78.3 C579.3,78.3 578.8,78.3 578.2,78.4 C576.2,78.6 574.2,78.8 572.2,79.1 C570.2,79.4 568.4,80 566.9,80.8 C565.4,81.6 564.1,82.7 563.1,84 C562.1,85.3 561.6,87 561.6,89 C561.6,91.3 562.2,93.2 563.5,94.8 C564.8,96.4 567,97.2 570.1,97.2 C571.6,97.2 573.1,97 574.5,96.6 C575.9,96.2 577.1,95.7 578.2,95 C579.3,94.3 580.1,93.6 580.7,92.9 C581.3,92.1 581.6,91.4 581.6,90.8 L581.6,78.3 L581.6,78.3 Z" id="Shape"></path>
            </g>
        </g>
    </g>
</svg>