<?xml version="1.0" encoding="UTF-8"?>
<svg width="651px" height="167px" viewBox="0 0 651 167" version="1.1" xmlns="http://www.w3.org/2000/svg" xmlns:xlink="http://www.w3.org/1999/xlink">
    <title>future</title>
    <g id="Page-1" stroke="none" stroke-width="1" fill="none" fill-rule="evenodd">
        <g id="Artboard" transform="translate(-412.000000, -1349.000000)" fill="#6B7280" fill-rule="nonzero">
            <g id="future" transform="translate(412.000000, 1349.000000)">
                <path d="M147.610098,0 C142.434736,0 138.224794,4.21728118 138.224794,9.40159893 C138.224794,12.2528634 139.525653,14.7790185 141.532243,16.5049344 L127.250627,36.6394076 L2.31388318,36.6437715 L0,38.8118943 L0,164.406641 L2.46323388,167 L144.172926,167 L146.03866,164.406641 L146.03866,45.5856111 L144.172926,43.8444216 L9.97198531,43.8444216 L7.50875142,45.5856111 L7.50875142,157.468066 L9.97198531,160.061425 L137.246306,160.061425 L139.112282,157.468066 L139.112282,53.3913863 L137.246306,51.6501969 L17.7642877,51.6501969 L15.3031836,53.3913863 L15.3031836,149.660352 L17.7642877,152.25565 L129.456157,152.25565 L131.322134,149.660352 L131.322134,60.1801343 L129.456157,58.4391873 L25.4353621,58.4391873 L22.974258,60.1801343 L22.974258,142.723959 L25.4353621,145.317318 L46.0937281,145.317318 L47.6651657,144.48018 L68.0982109,122.767193 L69.1393821,122.767193 L114.544805,122.767193 L117.471314,122.767193 L117.471314,118.883821 L117.471314,116.693879 L117.471314,113.038157 L117.471314,76.7153735 L117.471314,76.5073617 L117.471314,74.200322 L114.544805,74.200322 L69.1372039,74.200322 L65.5182748,74.200322 L65.5182748,76.5073617 L65.5182748,76.7153735 L65.5182748,113.040339 L65.5182748,116.696061 L65.5182748,118.886003 L65.5182748,119.293784 L45.1629182,140.980588 L27.3032745,140.980588 L27.3032745,62.7756752 L126.993117,62.7756752 L126.993117,147.919162 L19.6322001,147.919162 L19.6322001,55.9847453 L134.785202,55.9847453 L134.785202,155.724937 L11.8399703,155.724937 L11.8399703,48.17897 L141.711822,48.17897 L141.711822,162.66327 L4.33121892,162.66327 L4.33121892,40.9802595 L128.293976,40.9758956 L130.20521,40.0631166 L145.434819,18.521291 C146.136194,18.6905127 146.859109,18.8032463 147.612276,18.8032463 C152.789815,18.8032463 157,14.5860379 157,9.40159893 C157,4.21728118 152.787637,0 147.610098,0 Z M68.983521,76.8021663 L114.005825,76.8021663 L114.005825,113.228956 L68.983521,113.228956 L68.983521,76.8021663 Z M69.1372039,116.696061 L114.005825,116.696061 L114.005825,119.297905 L68.983521,119.297905 L68.983521,116.696061 L69.1372039,116.696061 Z M147.610098,15.8348359 C144.064743,15.8348359 141.190268,12.9554001 141.190268,9.40159893 C141.190268,5.84997968 144.064743,2.96836199 147.610098,2.96836199 C151.160051,2.96836199 154.034526,5.84997968 154.034526,9.40159893 C154.034526,12.9532182 151.160051,15.8348359 147.610098,15.8348359 Z" id="Shape"></path>
                <path d="M234.338493,75.2984 L234.338493,113.91344 C234.338493,114.41504 235.205707,114.55832 235.205707,113.91344 L235.205707,94.64168 L248.511873,94.64168 C249.233744,94.64168 249.233744,93.63872 248.511873,93.63872 L235.205707,93.63872 L235.205707,75.87176 L251.404202,75.87176 C251.91048,75.87176 252.053401,74.94032 251.404202,74.94032 L234.7721,74.94032 C234.556508,74.94032 234.338493,75.01184 234.338493,75.2984 L234.338493,75.2984 Z M238.895001,118.2836 L230.578466,118.2836 C230.217046,118.2836 230,117.99704 230,117.63872 L230,71.64488 C230,71.28656 230.217046,71 230.578466,71 L255.163745,71 C255.52468,71 255.815367,71.28656 255.815367,71.64488 L255.815367,79.31048 C255.815367,79.66856 255.52468,79.95512 255.163745,79.95512 L239.5442,79.95512 L239.5442,89.6984 L251.692466,89.6984 C252.053401,89.6984 252.271416,89.98496 252.271416,90.34328 L252.271416,98.15216 C252.271416,98.51048 252.053401,98.79704 251.692466,98.79704 L239.5442,98.79704 L239.5442,117.63872 C239.5442,117.99704 239.255937,118.2836 238.895001,118.2836 Z M288.931804,101.7344 L288.931804,71.64488 C288.931804,71.28656 289.222491,71 289.583426,71 L297.826805,71 C298.187741,71 298.478427,71.28656 298.478427,71.64488 L298.478427,104.02688 C298.478427,114.34328 292.764019,119 281.991669,119 C271.795846,119 265.432239,114.98816 265.432239,104.02688 L265.432239,71.64488 C265.432239,71.28656 265.720502,71 266.08386,71 L274.397489,71 C274.760847,71 275.049111,71.28656 275.049111,71.64488 L275.049111,101.7344 C275.049111,107.9672 278.593061,109.32824 281.558062,109.32824 L282.425276,109.32824 C286.909112,109.32824 288.931804,106.31936 288.931804,101.7344 L288.931804,101.7344 Z M269.916075,75.58496 L269.916075,103.45376 C269.916075,109.9016 274.32724,114.55832 281.194704,114.55832 L283.004226,114.55832 C289.87169,114.55832 294.355526,109.68656 294.355526,103.45376 L294.355526,75.58496 C294.355526,74.94032 293.488312,74.86856 293.488312,75.58496 L293.488312,103.45376 C293.488312,109.32824 289.222491,113.62688 283.004226,113.62688 L281.194704,113.62688 C275.121782,113.62688 270.783289,109.75832 270.783289,103.45376 L270.783289,75.58496 C270.783289,74.94032 269.916075,74.94032 269.916075,75.58496 L269.916075,75.58496 Z M318.940321,79.95512 L308.674249,79.95512 C308.310891,79.95512 308.022627,79.66856 308.022627,79.31048 L308.022627,71.64488 C308.022627,71.28656 308.310891,71 308.674249,71 L338.825687,71 C339.189044,71 339.477308,71.28656 339.477308,71.64488 L339.477308,79.31048 C339.477308,79.66856 339.189044,79.95512 338.825687,79.95512 L328.559615,79.95512 L328.559615,117.63872 C328.559615,117.99704 328.268929,118.2836 327.907993,118.2836 L319.591943,118.2836 C319.231007,118.2836 318.940321,117.99704 318.940321,117.63872 L318.940321,79.95512 L318.940321,79.95512 Z M334.414522,74.94032 L312.579135,74.94032 C312.072857,74.94032 312.072857,75.87176 312.579135,75.87176 L323.278814,75.87176 L323.278814,113.84168 C323.278814,114.34328 324.221122,114.34328 324.221122,113.84168 L324.221122,75.87176 L334.414522,75.87176 C335.138815,75.87176 335.066144,74.94032 334.414522,74.94032 L334.414522,74.94032 Z M372.596168,101.7344 L372.596168,71.64488 C372.596168,71.28656 372.884432,71 373.245368,71 L381.488747,71 C381.852105,71 382.140369,71.28656 382.140369,71.64488 L382.140369,104.02688 C382.140369,114.34328 376.428383,119 365.65361,119 C355.457788,119 349.09418,114.98816 349.09418,104.02688 L349.09418,71.64488 C349.09418,71.28656 349.384867,71 349.745802,71 L358.061853,71 C358.422789,71 358.711052,71.28656 358.711052,71.64488 L358.711052,101.7344 C358.711052,107.9672 362.255003,109.32824 365.220003,109.32824 L366.087218,109.32824 C370.571054,109.32824 372.596168,106.31936 372.596168,101.7344 L372.596168,101.7344 Z M353.578017,75.58496 L353.578017,103.45376 C353.578017,109.9016 357.989181,114.55832 364.859068,114.55832 L366.666168,114.55832 C373.536054,114.55832 378.017468,109.68656 378.017468,103.45376 L378.017468,75.58496 C378.017468,74.94032 377.150254,74.86856 377.150254,75.58496 L377.150254,103.45376 C377.150254,109.32824 372.884432,113.62688 366.666168,113.62688 L364.859068,113.62688 C358.783724,113.62688 354.445231,109.75832 354.445231,103.45376 L354.445231,75.58496 C354.445231,74.94032 353.578017,74.94032 353.578017,75.58496 L353.578017,75.58496 Z M422.272036,99.58496 C421.259479,101.66264 419.813314,103.23872 417.7882,104.17016 L423.863544,117.42392 C424.079136,117.85376 423.790872,118.2836 423.357265,118.2836 L414.462264,118.2836 C414.174,118.2836 414.028657,118.14032 413.955985,117.92528 L408.316671,105.74624 L404.6298,105.74624 L404.6298,117.63872 C404.6298,117.99704 404.339113,118.2836 403.978178,118.2836 L395.662127,118.2836 C395.373863,118.2836 395.155848,117.99704 395.155848,117.63872 L395.155848,71.64488 C395.155848,71.28656 395.373863,71 395.662127,71 L410.702721,71 C418.728086,71 423.572857,75.51344 423.572857,83.89544 L423.572857,92.92232 C423.572857,95.42984 423.13925,97.79408 422.272036,99.58496 L422.272036,99.58496 Z M414.101328,90.7016 L414.101328,86.04488 C414.101328,81.02984 412.221557,80.52824 406.725163,80.52824 L404.6298,80.52824 L404.6298,96.36128 L406.725163,96.36128 C411.281671,96.36128 413.955985,96.28952 414.101328,90.7016 Z M400.434227,113.91344 L400.434227,101.66264 L410.848064,101.66264 L416.920986,114.05672 C417.066329,114.41504 417.933543,114.27176 417.717951,113.62688 L411.642607,101.44784 C417.281921,100.65968 419.234364,97.72232 419.234364,92.42096 L419.234364,83.4656 C419.234364,75.58496 412.003542,74.94032 409.762835,74.94032 L400.00062,74.94032 C399.855277,74.94032 399.567013,75.15512 399.567013,75.37016 L399.567013,113.91344 C399.567013,114.41504 400.434227,114.41504 400.434227,113.91344 L400.434227,113.91344 Z M418.36715,83.4656 L418.36715,92.42096 C418.36715,99.72824 413.667721,100.73144 409.111214,100.73144 L400.434227,100.73144 L400.434227,75.87176 L409.762835,75.87176 C417.572607,75.87176 418.36715,81.1016 418.36715,83.4656 L418.36715,83.4656 Z M436.951695,118.2836 C436.590759,118.2836 436.372744,117.99704 436.372744,117.63872 L436.372744,71.64488 C436.372744,71.28656 436.590759,71 436.951695,71 L461.536489,71 C461.897425,71 462.188111,71.28656 462.188111,71.64488 L462.188111,79.31048 C462.188111,79.66856 461.897425,79.95512 461.536489,79.95512 L445.916945,79.95512 L445.916945,89.6984 L458.06521,89.6984 C458.428568,89.6984 458.64416,89.98496 458.64416,90.34328 L458.64416,98.15216 C458.64416,98.51048 458.428568,98.79704 458.06521,98.79704 L445.916945,98.79704 L445.916945,109.32824 L461.536489,109.32824 C461.897425,109.32824 462.188111,109.61504 462.188111,109.97312 L462.188111,117.63872 C462.188111,117.99704 461.897425,118.2836 461.536489,118.2836 L436.951695,118.2836 L436.951695,118.2836 Z M440.565894,75.51344 L440.565894,113.62688 C440.565894,114.05672 440.856581,114.2 441.144845,114.2 L457.776946,114.2 C458.426146,114.2 458.283225,113.34032 457.776946,113.34032 L441.50578,113.34032 L441.50578,94.64168 L454.811946,94.64168 C455.245553,94.64168 455.245553,93.63872 454.811946,93.63872 L441.50578,93.63872 L441.50578,75.87176 L457.776946,75.87176 C458.283225,75.87176 458.426146,74.94032 457.776946,74.94032 L441.144845,74.94032 C440.856581,74.94032 440.565894,75.15512 440.565894,75.51344 L440.565894,75.51344 Z M489.953498,71 C497.981285,71 502.826057,75.51344 502.826057,83.89544 L502.826057,92.92232 C502.826057,100.58816 498.053957,105.74624 489.953498,105.74624 L483.880577,105.74624 L483.880577,117.63872 C483.880577,117.99704 483.592313,118.2836 483.228955,118.2836 L474.912904,118.2836 C474.62464,118.2836 474.409048,117.99704 474.409048,117.63872 L474.409048,71.64488 C474.409048,71.28656 474.62464,71 474.912904,71 L489.953498,71 L489.953498,71 Z M493.352106,90.77312 L493.352106,86.04488 C493.352106,81.1016 491.038727,80.6 485.978363,80.6 L483.880577,80.6 L483.880577,96.36128 L485.978363,96.36128 C489.953498,96.36128 493.352106,95.64488 493.352106,90.77312 Z M498.487564,92.42096 L498.487564,83.4656 C498.487564,75.58496 492.341971,74.94032 489.013612,74.94032 L479.25382,74.94032 C479.108477,74.94032 478.81779,75.15512 478.81779,75.37016 L478.81779,113.91344 C478.81779,114.41504 479.687427,114.41504 479.687427,113.91344 L479.687427,101.7344 L488.364413,101.7344 C494.728021,101.7344 498.487564,99.51344 498.487564,92.42096 L498.487564,92.42096 Z M479.687427,75.87176 L489.013612,75.87176 C497.041399,75.87176 497.547678,81.1016 497.547678,83.4656 L497.547678,92.42096 C497.547678,99.72824 492.918499,100.73144 488.364413,100.73144 L479.687427,100.73144 L479.687427,75.87176 L479.687427,75.87176 Z M513.600829,118.2836 C513.237471,118.2836 513.021879,117.99704 513.021879,117.63872 L513.021879,71.64488 C513.021879,71.28656 513.237471,71 513.600829,71 L538.185624,71 C538.546559,71 538.837246,71.28656 538.837246,71.64488 L538.837246,79.31048 C538.837246,79.66856 538.546559,79.95512 538.185624,79.95512 L522.56608,79.95512 L522.56608,89.6984 L534.714345,89.6984 C535.07528,89.6984 535.293295,89.98496 535.293295,90.34328 L535.293295,98.15216 C535.293295,98.51048 535.07528,98.79704 534.714345,98.79704 L522.56608,98.79704 L522.56608,109.32824 L538.185624,109.32824 C538.546559,109.32824 538.837246,109.61504 538.837246,109.97312 L538.837246,117.63872 C538.837246,117.99704 538.546559,118.2836 538.185624,118.2836 L513.600829,118.2836 Z M517.215029,75.51344 L517.215029,113.62688 C517.215029,114.05672 517.505715,114.2 517.793979,114.2 L534.426081,114.2 C535.07528,114.2 534.93236,113.34032 534.426081,113.34032 L518.154915,113.34032 L518.154915,94.64168 L531.461081,94.64168 C531.894688,94.64168 531.894688,93.63872 531.461081,93.63872 L518.154915,93.63872 L518.154915,75.87176 L534.426081,75.87176 C534.93236,75.87176 535.07528,74.94032 534.426081,74.94032 L517.793979,74.94032 C517.505715,74.94032 517.215029,75.15512 517.215029,75.51344 L517.215029,75.51344 Z M569.712976,71 C574.63042,71 578.317291,72.36128 580.776013,75.01184 C582.944048,77.37608 584.029277,80.88656 584.029277,85.18496 L584.029277,104.17016 C584.029277,112.83872 578.968913,118.2836 569.712976,118.2836 L551.63471,118.2836 C551.273775,118.2836 551.05576,117.99704 551.05576,117.63872 L551.05576,71.64488 C551.05576,71.28656 551.273775,71 551.63471,71 L569.712976,71 L569.712976,71 Z M574.557748,102.02096 L574.557748,87.3344 C574.557748,82.82096 572.171698,79.95512 567.108912,79.95512 L560.602383,79.95512 L560.602383,109.32824 L567.108912,109.32824 C571.447405,109.32824 574.557748,106.5344 574.557748,102.02096 Z M555.466925,75.37016 L555.466925,113.91344 C555.466925,114.2 555.757611,114.27152 555.900532,114.27152 L567.687862,114.27152 C576.003913,114.27152 579.763455,109.32824 579.763455,104.74328 L579.763455,86.40296 C579.763455,78.80888 575.713226,74.94032 567.469847,74.94032 L555.900532,74.94032 C555.757611,74.94032 555.466925,75.01184 555.466925,75.37016 L555.466925,75.37016 Z M578.896241,86.40296 L578.896241,104.74328 C578.896241,110.47472 573.111584,113.4836 567.687862,113.4836 L556.334139,113.4836 L556.334139,75.87176 L567.469847,75.87176 C575.064027,75.87176 578.896241,79.23872 578.896241,86.40296 Z M597.262771,118.2836 C596.901836,118.2836 596.683821,117.99704 596.683821,117.63872 L596.683821,71.64488 C596.683821,71.28656 596.901836,71 597.262771,71 L605.50615,71 C605.867086,71 606.157772,71.28656 606.157772,71.64488 L606.157772,117.63872 C606.157772,117.99704 605.867086,118.2836 605.50615,118.2836 L597.262771,118.2836 Z M601.022314,75.2984 L601.022314,113.91344 C601.022314,114.55832 601.819279,114.55832 601.819279,113.91344 L601.819279,75.2984 C601.819279,74.79704 601.022314,74.79704 601.022314,75.2984 L601.022314,75.2984 Z M628.499437,71.42984 C628.572109,71.21504 628.717452,71 629.005716,71 L637.973389,71 C638.261653,71 638.406996,71.21504 638.479667,71.42984 L650.988868,117.49544 C651.06154,117.92528 650.770853,118.2836 650.337246,118.2836 L642.093867,118.2836 C641.878275,118.2836 641.66026,118.14032 641.587588,117.85376 L638.767931,107.82392 L628.211174,107.82392 L625.464188,117.85376 C625.391516,118.14032 625.246173,118.2836 624.957909,118.2836 L616.641858,118.2836 C616.208251,118.2836 615.917565,117.92528 615.990237,117.49544 L628.499437,71.42984 Z M630.524552,98.94032 L636.527224,98.94032 L633.416881,88.12232 L630.524552,98.94032 Z M641.66026,103.1672 L644.986196,113.91344 C645.131539,114.34328 645.926082,114.27152 645.710489,113.6984 L634.141174,75.58496 C633.923159,74.65376 632.69501,74.582 632.476995,75.58496 L621.268616,113.6984 C621.053023,114.2 621.847566,114.41504 622.06558,113.98496 L625.246173,103.1672 L641.66026,103.1672 L641.66026,103.1672 Z M625.464188,102.23576 L633.344209,75.87176 L641.371996,102.23576 L625.464188,102.23576 Z" id="Shape"></path>
            </g>
        </g>
    </g>
</svg>