<?xml version="1.0" encoding="UTF-8"?>
<svg width="254px" height="37px" viewBox="0 0 254 37" version="1.1" xmlns="http://www.w3.org/2000/svg" xmlns:xlink="http://www.w3.org/1999/xlink">
    <title>imageupscaler_black</title>
    <g id="Page-1" stroke="none" stroke-width="1" fill="none" fill-rule="evenodd">
        <g id="Artboard" transform="translate(-85.000000, -118.000000)" fill="#1E1E1E" fill-rule="nonzero">
            <path d="M92.18,146 L92.18,118 L85.38,118 L85.38,146 L92.18,146 Z M103.5,146 L103.5,134 C103.606667,132.986667 103.92,132.24 104.44,131.76 C104.96,131.28 105.58,131.04 106.3,131.04 C107.153333,131.04 107.88,131.28 108.48,131.76 C109.08,132.24 109.38,133 109.38,134.04 L109.38,134.04 L109.38,146 L115.82,146 L115.82,134 C115.926667,132.986667 116.233333,132.24 116.74,131.76 C117.246667,131.28 117.873333,131.04 118.62,131.04 C119.446667,131.04 120.16,131.28 120.76,131.76 C121.36,132.24 121.66,133 121.66,134.04 L121.66,134.04 L121.66,146 L128.1,146 L128.1,134.04 C128.1,131.88 127.68,130.16 126.84,128.88 C126,127.6 124.986667,126.706667 123.8,126.2 C122.613333,125.693333 121.433333,125.44 120.26,125.44 C119.086667,125.44 117.986667,125.733333 116.96,126.32 C115.933333,126.906667 115.06,127.653333 114.34,128.56 C113.566667,127.44 112.586667,126.64 111.4,126.16 C110.213333,125.68 109.06,125.44 107.94,125.44 C106.34,125.44 104.86,125.986667 103.5,127.08 L103.5,127.08 L103.5,126 L97.06,126 L97.06,146 L103.5,146 Z M142.3,154.56 C144.486667,154.56 146.446667,154.153333 148.18,153.34 C149.913333,152.526667 151.266667,151.393333 152.24,149.94 C153.213333,148.486667 153.7,146.84 153.7,145 L153.7,145 L153.7,126 L147.26,126 L147.26,127.16 C145.526667,126.013333 143.673333,125.44 141.7,125.44 C139.593333,125.44 137.786667,125.893333 136.28,126.8 C134.773333,127.706667 133.633333,128.96 132.86,130.56 C132.086667,132.16 131.7,133.986667 131.7,136.04 C131.7,138.093333 132.086667,139.913333 132.86,141.5 C133.633333,143.086667 134.773333,144.333333 136.28,145.24 C137.786667,146.146667 139.593333,146.6 141.7,146.6 C143.673333,146.6 145.526667,146.026667 147.26,144.88 L147.26,144.88 L147.26,145 C147.26,146.066667 146.806667,146.933333 145.9,147.6 C144.993333,148.266667 143.846667,148.6 142.46,148.6 C141.206667,148.6 140.086667,148.4 139.1,148 C138.113333,147.6 137.473333,147.106667 137.18,146.52 L137.18,146.52 L131.66,149.72 C132.433333,151.133333 133.813333,152.293333 135.8,153.2 C137.786667,154.106667 139.953333,154.56 142.3,154.56 Z M142.58,140.44 C141.246667,140.44 140.173333,140.046667 139.36,139.26 C138.546667,138.473333 138.14,137.4 138.14,136.04 C138.14,134.706667 138.546667,133.646667 139.36,132.86 C140.173333,132.073333 141.246667,131.68 142.58,131.68 C143.913333,131.68 145.026667,132.066667 145.92,132.84 C146.813333,133.613333 147.26,134.653333 147.26,135.96 C147.26,137.293333 146.813333,138.373333 145.92,139.2 C145.026667,140.026667 143.913333,140.44 142.58,140.44 Z M161.54,146.52 C162.606667,146.52 163.426667,146.226667 164,145.64 C164.573333,145.053333 164.86,144.213333 164.86,143.12 C164.86,142.026667 164.573333,141.193333 164,140.62 C163.426667,140.046667 162.606667,139.76 161.54,139.76 C160.473333,139.76 159.646667,140.053333 159.06,140.64 C158.473333,141.226667 158.18,142.053333 158.18,143.12 C158.18,144.186667 158.473333,145.02 159.06,145.62 C159.646667,146.22 160.473333,146.52 161.54,146.52 Z M180.46,146.56 C182.513333,146.56 184.386667,146.14 186.08,145.3 C187.773333,144.46 189.113333,143.28 190.1,141.76 C191.086667,140.24 191.58,138.506667 191.58,136.56 L191.58,136.56 L191.58,118 L184.78,118 L184.78,136.56 C184.78,137.6 184.373333,138.393333 183.56,138.94 C182.746667,139.486667 181.713333,139.76 180.46,139.76 C179.34,139.76 178.34,139.48 177.46,138.92 C176.58,138.36 176.14,137.573333 176.14,136.56 L176.14,136.56 L176.14,118 L169.34,118 L169.34,136.56 C169.34,138.506667 169.833333,140.24 170.82,141.76 C171.806667,143.28 173.146667,144.46 174.84,145.3 C176.533333,146.14 178.406667,146.56 180.46,146.56 Z M202.66,154 L202.66,144.84 C204.366667,146.013333 206.22,146.6 208.22,146.6 C210.326667,146.6 212.133333,146.146667 213.64,145.24 C215.146667,144.333333 216.293333,143.08 217.08,141.48 C217.866667,139.88 218.26,138.053333 218.26,136 C218.26,133.946667 217.866667,132.126667 217.08,130.54 C216.293333,128.953333 215.146667,127.706667 213.64,126.8 C212.133333,125.893333 210.326667,125.44 208.22,125.44 C206.246667,125.44 204.393333,126.013333 202.66,127.16 L202.66,127.16 L202.66,126 L196.22,126 L196.22,154 L202.66,154 Z M207.38,140.36 C206.02,140.36 204.893333,139.973333 204,139.2 C203.106667,138.426667 202.66,137.386667 202.66,136.08 C202.66,134.746667 203.106667,133.666667 204,132.84 C204.893333,132.013333 206.02,131.6 207.38,131.6 C208.686667,131.6 209.753333,132 210.58,132.8 C211.406667,133.6 211.82,134.666667 211.82,136 C211.82,137.333333 211.406667,138.393333 210.58,139.18 C209.753333,139.966667 208.686667,140.36 207.38,140.36 Z M229.94,146.56 C231.54,146.56 233.04,146.313333 234.44,145.82 C235.84,145.326667 236.966667,144.58 237.82,143.58 C238.673333,142.58 239.1,141.373333 239.1,139.96 C239.1,138.333333 238.7,137.053333 237.9,136.12 C237.1,135.186667 236.16,134.533333 235.08,134.16 C234,133.786667 232.686667,133.453333 231.14,133.16 C230.02,132.946667 229.22,132.753333 228.74,132.58 C228.26,132.406667 228.02,132.133333 228.02,131.76 C228.02,131.36 228.2,131.053333 228.56,130.84 C228.92,130.626667 229.42,130.52 230.06,130.52 C230.833333,130.52 231.446667,130.66 231.9,130.94 C232.353333,131.22 232.753333,131.666667 233.1,132.28 L233.1,132.28 L238.34,129.68 C237.486667,128.32 236.34,127.273333 234.9,126.54 C233.46,125.806667 231.846667,125.44 230.06,125.44 C228.54,125.44 227.126667,125.7 225.82,126.22 C224.513333,126.74 223.473333,127.486667 222.7,128.46 C221.926667,129.433333 221.54,130.6 221.54,131.96 C221.54,133.4 221.933333,134.54 222.72,135.38 C223.506667,136.22 224.426667,136.833333 225.48,137.22 C226.533333,137.606667 227.846667,137.973333 229.42,138.32 C230.673333,138.613333 231.56,138.866667 232.08,139.08 C232.6,139.293333 232.86,139.6 232.86,140 C232.86,140.48 232.573333,140.84 232,141.08 C231.426667,141.32 230.74,141.44 229.94,141.44 C228.953333,141.44 228.126667,141.26 227.46,140.9 C226.793333,140.54 226.3,139.946667 225.98,139.12 L225.98,139.12 L220.74,141.84 C221.566667,143.386667 222.76,144.56 224.32,145.36 C225.88,146.16 227.753333,146.56 229.94,146.56 Z M252.06,146.6 C253.82,146.6 255.453333,146.2 256.96,145.4 C258.466667,144.6 259.713333,143.493333 260.7,142.08 L260.7,142.08 L255.34,138.56 C254.353333,139.626667 253.26,140.16 252.06,140.16 C250.913333,140.16 249.94,139.76 249.14,138.96 C248.34,138.16 247.94,137.186667 247.94,136.04 C247.94,134.893333 248.34,133.92 249.14,133.12 C249.94,132.32 250.913333,131.92 252.06,131.92 C252.7,131.92 253.28,132.046667 253.8,132.3 C254.32,132.553333 254.833333,132.946667 255.34,133.48 L255.34,133.48 L260.66,129.92 C259.673333,128.56 258.426667,127.48 256.92,126.68 C255.413333,125.88 253.793333,125.48 252.06,125.48 C250.166667,125.48 248.406667,125.953333 246.78,126.9 C245.153333,127.846667 243.866667,129.126667 242.92,130.74 C241.973333,132.353333 241.5,134.12 241.5,136.04 C241.5,137.96 241.973333,139.726667 242.92,141.34 C243.866667,142.953333 245.153333,144.233333 246.78,145.18 C248.406667,146.126667 250.166667,146.6 252.06,146.6 Z M272.78,146.6 C274.78,146.6 276.646667,146.026667 278.38,144.88 L278.38,144.88 L278.38,146 L284.86,146 L284.86,126 L278.38,126 L278.38,127.2 C276.673333,126.026667 274.806667,125.44 272.78,125.44 C270.673333,125.44 268.866667,125.893333 267.36,126.8 C265.853333,127.706667 264.713333,128.96 263.94,130.56 C263.166667,132.16 262.78,133.986667 262.78,136.04 C262.78,138.093333 263.166667,139.913333 263.94,141.5 C264.713333,143.086667 265.853333,144.333333 267.36,145.24 C268.866667,146.146667 270.673333,146.6 272.78,146.6 Z M273.66,140.44 C272.353333,140.44 271.286667,140.04 270.46,139.24 C269.633333,138.44 269.22,137.373333 269.22,136.04 C269.22,134.706667 269.633333,133.646667 270.46,132.86 C271.286667,132.073333 272.353333,131.68 273.66,131.68 C275.02,131.68 276.14,132.066667 277.02,132.84 C277.9,133.613333 278.34,134.653333 278.34,135.96 C278.34,137.293333 277.893333,138.373333 277,139.2 C276.106667,140.026667 274.993333,140.44 273.66,140.44 Z M295.22,146.28 C296.046667,146.28 297.153333,146.186667 298.54,146 L298.54,146 L298.54,140.08 C297.953333,140.133333 297.566667,140.16 297.38,140.16 C296.846667,140.16 296.473333,140.066667 296.26,139.88 C296.046667,139.693333 295.94,139.386667 295.94,138.96 L295.94,138.96 L295.94,118 L289.5,118 L289.5,139.44 C289.5,142 289.973333,143.78 290.92,144.78 C291.866667,145.78 293.3,146.28 295.22,146.28 Z M312.02,146.56 C313.913333,146.56 315.6,146.2 317.08,145.48 C318.56,144.76 319.78,143.72 320.74,142.36 L320.74,142.36 L315.86,139.48 C315.46,139.986667 314.92,140.38 314.24,140.66 C313.56,140.94 312.86,141.08 312.14,141.08 C310.993333,141.08 310.066667,140.866667 309.36,140.44 C308.653333,140.013333 308.02,139.28 307.46,138.24 L307.46,138.24 L321.54,138.24 C321.673333,137.493333 321.74,136.746667 321.74,136 C321.74,134.026667 321.306667,132.24 320.44,130.64 C319.573333,129.04 318.366667,127.773333 316.82,126.84 C315.273333,125.906667 313.54,125.44 311.62,125.44 C309.566667,125.44 307.733333,125.9 306.12,126.82 C304.506667,127.74 303.253333,129.006667 302.36,130.62 C301.466667,132.233333 301.02,134.026667 301.02,136 C301.02,138 301.473333,139.8 302.38,141.4 C303.286667,143 304.566667,144.26 306.22,145.18 C307.873333,146.1 309.806667,146.56 312.02,146.56 Z M315.7,133.32 L307.34,133.32 C307.393333,132.68 307.84,132.133333 308.68,131.68 C309.52,131.226667 310.486667,131 311.58,131 C312.62,131 313.52,131.2 314.28,131.6 C315.04,132 315.513333,132.573333 315.7,133.32 L315.7,133.32 Z M331.74,146 L331.74,136.24 C331.74,134.933333 332.233333,133.826667 333.22,132.92 C334.206667,132.013333 335.513333,131.56 337.14,131.56 C337.513333,131.56 337.833333,131.6 338.1,131.68 L338.1,131.68 L338.5,125.6 L337.94,125.6 C336.393333,125.6 335.086667,125.953333 334.02,126.66 C332.953333,127.366667 332.193333,128.24 331.74,129.28 L331.74,129.28 L331.74,126 L325.3,126 L325.3,146 L331.74,146 Z" id="imageupscaler_black"></path>
        </g>
    </g>
</svg>