<?xml version="1.0" encoding="UTF-8"?>
<svg width="600px" height="140px" viewBox="0 0 600 140" version="1.1" xmlns="http://www.w3.org/2000/svg" xmlns:xlink="http://www.w3.org/1999/xlink">
    <title>producthunt</title>
    <g id="Page-1" stroke="none" stroke-width="1" fill="none" fill-rule="evenodd">
        <g id="Artboard" transform="translate(-412.000000, -551.000000)" fill-rule="nonzero">
            <g id="producthunt" transform="translate(712.000000, 621.000000) scale(-1, 1) rotate(-180.000000) translate(-712.000000, -621.000000) translate(412.000000, 551.000000)">
                <path d="M140,70 C140,31.3401667 108.659833,0 70,0 C31.3401667,0 7.99423878e-14,31.3401667 7.99423878e-14,70 C7.99423878e-14,108.659833 31.3401667,140 70,140 C108.659833,140 140,108.659833 140,70" id="Path" fill="#6B7280"></path>
                <path d="M79.22,70 L59.16,70 L59.16,91 L79.22,91 C85.0846,91 89.84,86.2983333 89.84,80.5 C89.84,74.7016667 85.0846,70 79.22,70 M79.22,105 L45,105 L45,35 L59.16,35 L59.16,56 L79.22,56 C92.90564,56 104,66.969 104,80.5 C104,94.031 92.90564,105 79.22,105" id="Shape" fill="#FFFFFF"></path>
                <path d="M213.980312,79.117636 C213.980312,82.9950876 211.008073,85.3485831 207.14797,85.3485831 L196.799309,85.3485831 L196.799309,72.957188 L207.14797,72.957188 C211.013344,72.957188 213.980312,75.3106836 213.980312,79.117636 M187,47.0005875 L187,94 L208.524863,94 C218.531497,94 223.98636,87.2168098 223.98636,79.117636 C223.98636,71.0889614 218.469416,64.3057712 208.524863,64.3057712 L196.798138,64.3057712 L196.798138,47.0005875 L187,47.0005875 Z M229.94255,47.0005875 L229.94255,81.2655092 L238.701722,81.2655092 L238.701722,76.7653154 C241.117581,79.6734041 245.190865,82.0938738 249.331501,82.0938738 L249.331501,73.5129561 C248.70777,73.6510169 247.949337,73.7185785 246.915642,73.7185785 C244.016611,73.7185785 240.151237,72.0589118 238.701136,69.9116261 L238.701136,47.0005875 L229.941964,47.0005875 L229.94255,47.0005875 Z M278.806736,64.5824802 C278.806736,69.7735653 275.761289,74.2737591 270.256059,74.2737591 C264.800611,74.2737591 261.766292,69.7735653 261.766292,64.5824802 C261.766292,59.320896 264.800025,54.8301021 270.256059,54.8301021 C275.773003,54.8301021 278.806736,59.3273584 278.806736,64.5824802 M252.652209,64.5824802 C252.652209,74.0646117 259.270198,82.0938738 270.249617,82.0938738 C281.28936,82.0938738 287.914377,74.0651992 287.914377,64.5824802 C287.914377,55.0997613 281.289946,47.0005875 270.249617,47.0005875 C259.27664,47.0005875 252.652209,55.0997613 252.652209,64.5824802 M317.400739,58.6311796 L317.400739,70.4668067 C315.951224,72.681654 312.776932,74.2737591 309.877316,74.2737591 C304.843544,74.2737591 301.393405,70.3281584 301.393405,64.5824802 C301.393405,58.7686529 304.848815,54.8301021 309.877316,54.8301021 C312.776346,54.8301021 315.950638,56.4163323 317.400739,58.6370545 M317.400739,47.0070499 L317.400739,52.1299859 C314.77697,48.8077149 311.192714,47.0070499 307.118844,47.0070499 C298.769636,47.0070499 292.353115,53.3754703 292.353115,64.5889426 C292.353115,75.4552068 298.634934,82.1003362 307.118844,82.1003362 C311.05157,82.1003362 314.77697,80.440082 317.400739,76.9797503 L317.400739,94 L326.232534,94 L326.232534,47.0005875 L317.400739,47.0005875 L317.400739,47.0070499 Z M357.444259,47.001175 L357.444259,52.0536118 C355.168959,49.562643 351.168297,47.001175 345.718119,47.001175 C338.397335,47.001175 334.953638,51.0166873 334.953638,57.5172935 L334.953638,81.2596343 L343.713395,81.2596343 L343.713395,60.9829127 C343.713395,56.3446582 346.129254,54.8230522 349.854069,54.8230522 C353.236272,54.8230522 355.927392,56.6912789 357.444259,58.6300046 L357.444259,81.2649217 L366.209287,81.2649217 L366.209287,47.0005875 L357.444259,47.0005875 L357.444259,47.001175 Z M372.788623,64.5830677 C372.788623,74.8265897 380.238253,82.0944613 390.453382,82.0944613 C397.285724,82.0944613 401.42636,79.118811 403.634308,76.0726616 L397.903598,70.6765415 C396.318795,73.0294496 393.903522,74.2749341 390.875645,74.2749341 C385.56017,74.2749341 381.835355,70.3974825 381.835355,64.5836552 C381.835355,58.7698279 385.56017,54.8312771 390.875645,54.8312771 C393.909378,54.8312771 396.325237,56.2148223 397.903598,58.5001687 L403.634308,53.0952363 C401.42636,50.0484994 397.285724,47.0029375 390.453382,47.0029375 C380.239424,47.0029375 372.788623,54.2702216 372.788623,64.5848302 M411.168274,56.2071849 L411.168274,73.5805177 L405.651331,73.5805177 L405.651331,81.2649217 L411.168274,81.2649217 L411.168274,90.4004325 L419.933303,90.4004325 L419.933303,81.2649217 L426.691851,81.2649217 L426.691851,73.5805177 L419.933303,73.5805177 L419.933303,58.560093 C419.933303,56.4157448 421.034348,54.8236397 422.967036,54.8236397 C424.276577,54.8236397 425.523453,55.3083211 426.000769,55.8605642 L427.866104,49.1478732 C426.557148,47.9699504 424.208055,47.0005875 420.54532,47.0005875 C414.404061,47.0005875 411.163003,50.1847977 411.163003,56.2065974 M482.818255,47.0005875 L482.818255,67.282009 L461.08021,67.282009 L461.08021,47.0005875 L451.292029,47.0005875 L451.292029,94 L461.085481,94 L461.085481,75.8658642 L482.823525,75.8658642 L482.823525,94 L492.6896,94 L492.6896,47.0005875 L482.818255,47.0005875 Z M524.047741,47.0005875 L524.047741,52.0530243 C521.772441,49.5620555 517.771779,47.0005875 512.321601,47.0005875 C505.000817,47.0005875 501.55712,51.0160998 501.55712,57.516706 L501.55712,81.2590468 L510.316292,81.2590468 L510.316292,60.9829127 C510.316292,56.3446582 512.732736,54.8230522 516.457552,54.8230522 C519.839754,54.8230522 522.530874,56.6912789 524.047741,58.6300046 L524.047741,81.2649217 L532.812769,81.2649217 L532.812769,47.0005875 L524.047741,47.0005875 Z M564.018052,47.0005875 L564.018052,68.042812 C564.018052,72.681654 561.607464,74.2737591 557.876792,74.2737591 C554.421382,74.2737591 551.809326,72.3350333 550.286603,70.3963075 L550.286603,47.0005875 L541.526845,47.0005875 L541.526845,81.2655092 L550.286603,81.2655092 L550.286603,76.9732878 C552.427201,79.4642567 556.567836,82.0938738 561.950663,82.0938738 C569.332941,82.0938738 572.84399,77.9426507 572.84399,71.436757 L572.84399,47.0005875 L564.012195,47.0005875 L564.018052,47.0005875 Z M583.295727,56.2065974 L583.295727,73.5799303 L577.778784,73.5799303 L577.778784,81.2643342 L583.295727,81.2643342 L583.295727,90.399845 L592.060756,90.399845 L592.060756,81.2643342 L598.819304,81.2643342 L598.819304,73.5799303 L592.060756,73.5799303 L592.060756,58.5595055 C592.060756,56.4151573 593.161802,54.8230522 595.094489,54.8230522 C596.404031,54.8230522 597.650907,55.3077337 598.139935,55.8599768 L600,49.1472857 C598.690458,47.9693629 596.34195,47 592.679216,47 C586.537956,47 583.296898,50.1842102 583.296898,56.2060099" id="Shape" fill="#6B7280"></path>
            </g>
        </g>
    </g>
</svg>