<?xml version="1.0" encoding="UTF-8"?>
<svg width="653px" height="103px" viewBox="0 0 653 103" version="1.1" xmlns="http://www.w3.org/2000/svg" xmlns:xlink="http://www.w3.org/1999/xlink">
    <title>sf</title>
    <g id="Page-1" stroke="none" stroke-width="1" fill="none" fill-rule="evenodd">
        <g id="Artboard" transform="translate(-412.000000, -1181.000000)" fill="#6B7280" fill-rule="nonzero">
            <g id="sf" transform="translate(412.050000, 1181.000000)">
                <path d="M66.85,54.5 C66.85,35.4 60.05,26.7 56.45,23.4 C55.75,22.8 54.65,23.3 54.75,24.3 C55.45,35.1 41.85,37.8 41.85,54.7 L41.85,54.7 C41.85,54.7 41.85,54.8 41.85,54.8 C41.85,65.1 49.65,73.5 59.25,73.5 C68.85,73.5 76.65,65.1 76.65,54.8 C76.65,54.8 76.65,54.7 76.65,54.7 L76.65,54.7 C76.65,49.9 74.85,45.3 73.05,41.9 C72.65,41.2 71.65,41.5 71.75,42.1 C75.05,56.7 66.85,65.7 66.85,54.5 Z" id="Path"></path>
                <path d="M46.15,94.8 C45.75,94.8 45.25,94.6 44.95,94.3 L0.45,49.8 C-0.15,49.2 -0.15,48.1 0.45,47.4 L47.45,0.4 C47.75,0.2 48.15,0 48.55,0 L62.05,0 C62.85,0 63.35,0.5 63.55,1 C63.75,1.5 63.75,2.2 63.15,2.8 L19.05,47 C18.15,47.9 18.15,49.3 19.05,50.2 L53.95,85.2 C54.55,85.8 54.55,86.9 53.95,87.6 L47.25,94.4 C46.95,94.6 46.55,94.8 46.15,94.8 Z" id="Path"></path>
                <path d="M55.05,102.6 C54.25,102.6 53.75,102.1 53.55,101.6 C53.35,101.1 53.35,100.4 53.95,99.8 L98.15,55.6 C98.55,55.2 98.85,54.6 98.85,54 C98.85,53.4 98.65,52.8 98.15,52.4 L63.15,17.4 C62.55,16.8 62.55,15.7 63.15,15 L69.95,8.2 C70.25,7.9 70.65,7.7 71.15,7.7 C71.65,7.7 71.95,8 72.25,8.3 L116.65,52.8 C116.95,53.1 117.15,53.5 117.15,54 C117.15,54.5 116.95,54.9 116.65,55.2 L69.65,102.2 C69.35,102.5 68.95,102.7 68.45,102.7 L55.05,102.7 L55.05,102.6 Z" id="Path"></path>
                <g id="Group" transform="translate(136.750000, 24.300000)">
                    <g transform="translate(0.000000, 0.300000)">
                        <path d="M30.4,7.4 C30.2,7.8 29.9,8 29.4,8 C29.1,8 28.7,7.8 28.2,7.3 C27.7,6.8 27,6.3 26.2,5.8 C25.3,5.2 24.3,4.7 23,4.3 C21.7,3.8 20.1,3.6 18.2,3.6 C16.3,3.6 14.7,3.9 13.2,4.4 C11.8,4.9 10.6,5.7 9.6,6.6 C8.6,7.5 7.9,8.6 7.4,9.8 C6.9,11 6.6,12.3 6.6,13.6 C6.6,15.4 7,16.8 7.7,18 C8.4,19.1 9.4,20.1 10.7,20.9 C11.9,21.7 13.3,22.4 14.9,22.9 C16.5,23.5 18.1,24 19.7,24.5 C21.3,25 22.9,25.6 24.5,26.3 C26.1,26.9 27.4,27.8 28.7,28.7 C30,29.6 30.9,30.9 31.7,32.3 C32.4,33.7 32.8,35.5 32.8,37.6 C32.8,39.8 32.4,41.8 31.7,43.7 C31,45.6 29.9,47.3 28.5,48.7 C27.1,50.1 25.3,51.2 23.3,52.1 C21.2,52.9 18.9,53.3 16.3,53.3 C12.9,53.3 9.9,52.7 7.5,51.5 C5,50.3 2.9,48.6 1,46.5 L2,44.9 C2.3,44.5 2.6,44.4 3,44.4 C3.2,44.4 3.5,44.5 3.8,44.8 C4.1,45.1 4.6,45.5 5,45.9 C5.5,46.3 6.1,46.8 6.8,47.3 C7.5,47.8 8.3,48.3 9.2,48.7 C10.1,49.1 11.1,49.5 12.3,49.8 C13.5,50.1 14.8,50.2 16.3,50.2 C18.4,50.2 20.2,49.9 21.8,49.3 C23.4,48.7 24.8,47.8 25.9,46.8 C27,45.8 27.9,44.4 28.5,43 C29.1,41.5 29.4,39.9 29.4,38.3 C29.4,36.5 29,35 28.3,33.8 C27.6,32.6 26.6,31.6 25.3,30.8 C24.1,30 22.7,29.3 21.1,28.8 C19.5,28.3 17.9,27.7 16.3,27.2 C14.7,26.7 13.1,26.1 11.5,25.5 C9.9,24.9 8.6,24.1 7.3,23.1 C6.1,22.1 5.1,20.9 4.3,19.4 C3.6,17.9 3.2,16.1 3.2,13.8 C3.2,12.1 3.5,10.4 4.2,8.8 C4.9,7.2 5.8,5.8 7.1,4.5 C8.4,3.3 9.9,2.3 11.8,1.5 C13.7,0.8 15.8,0.4 18.2,0.4 C20.9,0.4 23.3,0.8 25.5,1.7 C27.6,2.6 29.6,3.9 31.4,5.6 L30.4,7.4 Z" id="Path"></path>
                        <path d="M16.1,54.2 C12.6,54.2 9.5,53.6 7,52.3 C4.5,51.1 2.2,49.3 0.3,47.2 L0,46.9 L1.3,44.9 C1.9,44.2 2.4,44.1 2.8,44.1 C3.2,44.1 3.6,44.3 4,44.7 C4.3,45 4.8,45.4 5.3,45.8 C5.8,46.2 6.4,46.7 7,47.2 C7.7,47.7 8.4,48.1 9.3,48.5 C10.2,48.9 11.2,49.3 12.3,49.5 C13.4,49.8 14.7,49.9 16.2,49.9 C18.2,49.9 20,49.6 21.5,49 C23,48.4 24.3,47.6 25.4,46.6 C26.4,45.6 27.3,44.4 27.8,43 C28.4,41.6 28.6,40.1 28.6,38.5 C28.6,36.8 28.3,35.4 27.6,34.3 C26.9,33.2 26,32.3 24.8,31.5 C23.6,30.7 22.3,30.1 20.8,29.6 C19.3,29.1 17.7,28.5 16,28 C14.3,27.5 12.7,26.9 11.2,26.3 C9.6,25.6 8.1,24.8 6.9,23.8 C5.6,22.8 4.6,21.4 3.8,19.9 C3,18.3 2.6,16.4 2.6,14.1 C2.6,12.3 2.9,10.5 3.6,8.8 C4.3,7.1 5.3,5.6 6.6,4.3 C7.9,3 9.6,2 11.5,1.2 C13.4,0.4 15.7,0 18.1,0 C20.9,0 23.4,0.4 25.6,1.3 C27.8,2.2 29.8,3.6 31.7,5.4 L32,5.7 L30.9,7.8 C30.3,8.9 29.2,9.2 27.8,7.9 C27.3,7.5 26.7,7 25.8,6.5 C25,6 23.9,5.5 22.7,5 C21.5,4.6 20,4.3 18.1,4.3 C16.3,4.3 14.7,4.6 13.3,5.1 C12,5.6 10.8,6.3 9.9,7.2 C9,8.1 8.3,9.1 7.8,10.2 C7.3,11.3 7.1,12.6 7.1,13.8 C7.1,15.4 7.4,16.8 8.1,17.8 C8.8,18.9 9.7,19.8 10.9,20.6 C12.1,21.4 13.4,22 14.9,22.6 C16.4,23.1 18,23.7 19.7,24.2 C21.3,24.7 23,25.3 24.5,26 C26.1,26.7 27.6,27.5 28.8,28.5 C30.1,29.5 31.1,30.8 31.9,32.3 C32.7,33.8 33.1,35.7 33.1,37.9 C33.1,40.1 32.7,42.3 31.9,44.3 C31.1,46.3 30,48 28.5,49.5 C27,51 25.2,52.1 23.1,53 C21.3,53.7 18.8,54.2 16.1,54.2 Z M1.6,46.7 C3.3,48.6 5.3,50.1 7.6,51.2 C10,52.4 12.9,53 16.2,53 C18.7,53 21,52.6 23,51.8 C25,51 26.6,49.9 28,48.6 C29.3,47.3 30.4,45.6 31.1,43.8 C31.8,42 32.2,40 32.2,37.9 C32.2,35.9 31.8,34.2 31.2,32.8 C30.5,31.5 29.6,30.3 28.4,29.4 C27.2,28.5 25.9,27.7 24.4,27 C22.9,26.4 21.3,25.8 19.7,25.2 C18.1,24.7 16.5,24.1 14.9,23.6 C13.3,23 11.9,22.3 10.6,21.5 C9.3,20.7 8.3,19.6 7.5,18.4 C6.7,17.2 6.3,15.6 6.3,13.7 C6.3,12.3 6.6,10.9 7.1,9.6 C7.6,8.3 8.4,7.1 9.4,6.2 C10.4,5.2 11.7,4.4 13.2,3.9 C14.7,3.3 16.5,3.1 18.4,3.1 C20.3,3.1 22,3.3 23.4,3.8 C24.7,4.3 25.9,4.8 26.7,5.4 C27.6,6 28.3,6.5 28.8,7 C29.4,7.5 29.6,7.5 29.6,7.5 C29.7,7.5 29.9,7.5 30,7.2 L30.7,5.9 C29.1,4.4 27.3,3.2 25.4,2.4 C23.3,1.6 21,1.2 18.4,1.2 C16.1,1.2 14,1.6 12.2,2.3 C10.4,3 8.9,4 7.7,5.1 C6.5,6.3 5.6,7.6 4.9,9.2 C4.3,10.7 4,12.3 4,14 C4,16.1 4.4,17.9 5.1,19.3 C5.8,20.7 6.7,21.9 7.9,22.8 C9.1,23.7 10.4,24.5 11.9,25.1 C13.4,25.7 15,26.3 16.6,26.8 C18.2,27.3 19.8,27.8 21.4,28.4 C23,29 24.4,29.6 25.7,30.5 C27,31.3 28.1,32.4 28.8,33.7 C29.6,35 30,36.6 30,38.6 C30,40.4 29.7,42 29.1,43.6 C28.5,45.2 27.6,46.5 26.4,47.6 C25.2,48.7 23.8,49.6 22.1,50.3 C20.4,50.9 18.5,51.3 16.4,51.3 C14.9,51.3 13.5,51.1 12.2,50.8 C11,50.5 9.9,50.1 9,49.7 C8.1,49.3 7.2,48.8 6.5,48.2 C5.8,47.7 5.2,47.2 4.7,46.8 C4.2,46.4 3.8,46 3.5,45.7 C3.2,45.4 3,45.4 3,45.4 C2.9,45.4 2.7,45.4 2.5,45.7 L1.6,46.7 Z" id="Shape"></path>
                    </g>
                    <g transform="translate(39.900000, 0.100000)" id="Shape">
                        <path d="M50,27.2 C50,31.2 49.4,34.8 48.2,38.1 C47,41.4 45.3,44.2 43.1,46.5 C40.9,48.8 38.3,50.6 35.3,51.9 C32.3,53.2 28.9,53.8 25.2,53.8 C21.6,53.8 18.2,53.2 15.2,51.9 C12.2,50.6 9.6,48.9 7.4,46.5 C5.2,44.2 3.5,41.4 2.3,38.1 C1.1,34.8 0.5,31.2 0.5,27.2 C0.5,23.2 1.1,19.6 2.3,16.3 C3.5,13 5.2,10.2 7.4,7.9 C9.6,5.6 12.2,3.8 15.2,2.5 C18.2,1.2 21.6,0.6 25.2,0.6 C28.9,0.6 32.3,1.2 35.3,2.5 C38.3,3.8 40.9,5.5 43.1,7.9 C45.3,10.2 47,13 48.2,16.3 C49.4,19.6 50,23.2 50,27.2 Z M46.1,27.2 C46.1,23.6 45.6,20.3 44.6,17.4 C43.6,14.5 42.2,12.1 40.4,10.1 C38.6,8.1 36.4,6.6 33.8,5.5 C31.2,4.4 28.4,3.9 25.3,3.9 C22.2,3.9 19.4,4.4 16.8,5.5 C14.2,6.6 12,8.1 10.2,10.1 C8.4,12.1 6.9,14.5 5.9,17.4 C4.9,20.3 4.4,23.5 4.4,27.2 C4.4,30.8 4.9,34.1 5.9,37 C6.9,39.9 8.3,42.3 10.2,44.3 C12,46.3 14.2,47.8 16.8,48.9 C19.4,50 22.2,50.5 25.3,50.5 C28.4,50.5 31.3,50 33.8,48.9 C36.4,47.9 38.6,46.3 40.4,44.3 C42.2,42.3 43.6,39.9 44.6,37 C45.6,34.1 46.1,30.9 46.1,27.2 Z"></path>
                        <path d="M25.3,54.3 C21.6,54.3 18.1,53.6 15.1,52.4 C12,51.1 9.3,49.3 7.1,46.9 C4.9,44.5 3.1,41.7 1.9,38.3 C0.7,35 0,31.2 0,27.2 C0,23.2 0.6,19.4 1.9,16.1 C3.1,12.8 4.9,9.9 7.1,7.5 C9.3,5.1 12,3.3 15.1,2 C18.2,0.7 21.6,0 25.3,0 C29.1,0 32.5,0.7 35.6,1.9 C38.7,3.2 41.4,5 43.6,7.4 C45.8,9.8 47.6,12.7 48.8,16 C50,19.3 50.6,23 50.6,27.1 C50.6,31.2 50,34.9 48.8,38.2 C47.6,41.5 45.8,44.4 43.6,46.8 C41.4,49.2 38.7,51 35.6,52.3 C32.5,53.7 29,54.3 25.3,54.3 Z M25.3,1.3 C21.8,1.3 18.5,1.9 15.5,3.2 C12.6,4.4 10,6.2 7.9,8.4 C5.8,10.6 4.1,13.4 3,16.6 C1.8,19.8 1.2,23.4 1.2,27.3 C1.2,31.2 1.8,34.8 3,38 C4.2,41.2 5.8,43.9 7.9,46.2 C10,48.4 12.6,50.2 15.5,51.4 C18.4,52.6 21.7,53.2 25.3,53.2 C28.9,53.2 32.2,52.6 35.1,51.4 C38,50.2 40.6,48.4 42.7,46.2 C44.8,44 46.5,41.2 47.6,38.1 C48.8,34.9 49.4,31.3 49.4,27.4 C49.4,23.5 48.8,19.9 47.6,16.7 C46.4,13.5 44.8,10.8 42.7,8.5 C40.6,6.3 38,4.5 35.1,3.3 C32.2,1.9 28.9,1.3 25.3,1.3 Z"></path>
                    </g>
                    <g transform="translate(99.400000, 0.800000)">
                        <path d="M20.2,49.8 C22.7,49.8 24.9,49.4 26.9,48.5 C28.9,47.6 30.5,46.4 31.9,44.9 C33.3,43.4 34.3,41.5 35,39.5 C35.7,37.4 36.1,35.2 36.1,32.7 L36.1,0.6 L39.8,0.6 L39.8,32.7 C39.8,35.6 39.3,38.2 38.4,40.7 C37.5,43.2 36.2,45.3 34.5,47.2 C32.8,49 30.7,50.5 28.3,51.5 C25.9,52.5 23.1,53.1 20.1,53.1 C17.1,53.1 14.3,52.6 11.9,51.5 C9.5,50.4 7.4,49 5.7,47.2 C4,45.4 2.7,43.2 1.8,40.7 C0.9,38.2 0.4,35.5 0.4,32.7 L0.4,0.6 L4.2,0.6 L4.2,32.6 C4.2,35 4.6,37.3 5.3,39.4 C6,41.5 7.1,43.3 8.4,44.8 C9.8,46.3 11.4,47.5 13.4,48.4 C15.4,49.4 17.7,49.8 20.2,49.8 Z" id="Path"></path>
                        <path d="M20.2,53.7 C17.1,53.7 14.3,53.2 11.8,52.1 C9.3,51 7.1,49.5 5.4,47.6 C3.7,45.7 2.3,43.4 1.4,40.9 C0.5,38.4 0,35.6 0,32.7 L0,0 L5,0 L5,32.7 C5,35 5.4,37.2 6,39.3 C6.7,41.3 7.7,43.1 9,44.5 C10.3,46 11.9,47.1 13.8,48 C15.7,48.8 17.8,49.3 20.2,49.3 C22.6,49.3 24.8,48.9 26.6,48.1 C28.5,47.3 30.1,46.1 31.4,44.6 C32.7,43.1 33.7,41.4 34.4,39.4 C35.1,37.4 35.4,35.2 35.4,32.8 L35.4,0 L40.4,0 L40.4,32.7 C40.4,35.6 39.9,38.4 39,40.9 C38.1,43.4 36.7,45.7 35,47.6 C33.3,49.5 31.1,51 28.6,52.1 C26.1,53.2 23.3,53.7 20.2,53.7 Z M1.1,1.2 L1.1,32.7 C1.1,35.5 1.5,38.1 2.4,40.5 C3.3,42.9 4.5,45 6.2,46.8 C7.8,48.6 9.8,50 12.2,51 C14.5,52 17.2,52.5 20.2,52.5 C23.1,52.5 25.8,52 28.2,51 C30.5,50 32.6,48.6 34.2,46.8 C35.8,45 37.1,42.9 38,40.5 C38.9,38.1 39.3,35.5 39.3,32.7 L39.3,1.2 L36.8,1.2 L36.8,32.7 C36.8,35.2 36.4,37.5 35.7,39.7 C35,41.9 33.9,43.8 32.4,45.4 C31,47 29.2,48.3 27.2,49.2 C25.2,50.1 22.8,50.6 20.3,50.6 C17.7,50.6 15.4,50.1 13.4,49.2 C11.4,48.3 9.6,47 8.2,45.4 C6.8,43.8 5.7,41.9 5,39.7 C4.3,37.6 3.9,35.2 3.9,32.7 L3.9,1.2 L1.1,1.2 Z" id="Shape"></path>
                    </g>
                    <g transform="translate(150.500000, 0.800000)">
                        <path d="M10.2,26.2 C11.2,26.2 11.1,26.2 11.1,26.2 L13.3,26.2 C15.6,26.2 17.7,25.9 19.5,25.4 C21.3,24.8 22.9,24.1 24.1,23 C25.4,22 26.3,20.7 27,19.3 C27.7,17.9 28,16.2 28,14.4 C28,10.7 26.8,8 24.4,6.2 C22,4.4 18.5,3.5 13.8,3.5 L4.3,3.5 L4.3,26.2 L4.3,29 L4.3,52.5 L0.6,52.5 L0.6,0.6 L13.8,0.6 C19.8,0.6 24.3,1.8 27.2,4.1 C30.2,6.4 31.6,9.8 31.6,14.3 C31.6,16.3 31.3,18.1 30.6,19.7 C29.9,21.3 28.9,22.8 27.6,24 C26.3,25.2 24.8,26.3 23,27 C21.2,27.8 19.1,28.3 16.9,28.6 C17.5,29 18,29.5 18.5,30.1 L36.4,52.5 L33.1,52.5 C32.7,52.5 32.4,52.4 32.1,52.3 C31.8,52.2 31.5,51.9 31.3,51.6 L14.7,30.6 C14.3,30.1 13.8,29.7 13.4,29.5 C12.9,29.3 10,29.2 9,29.2 C9,26.5 9.4,26.2 10.2,26.2 Z" id="Path"></path>
                        <path d="M37.7,53.1 L33.2,53.1 C32.7,53.1 32.3,53 31.9,52.8 C31.5,52.6 31.2,52.3 30.9,51.9 L14.3,30.9 C13.9,30.4 13.6,30.1 13.2,29.9 C12.8,29.8 10.4,29.6 9.1,29.6 L8.5,29.6 L8.5,27 C8.5,26.1 8.7,25.6 10.3,25.6 C11.2,25.6 11.3,25.6 11.3,25.6 L13.5,25.6 C15.7,25.6 17.7,25.3 19.5,24.8 C21.2,24.3 22.7,23.5 23.9,22.5 C25.1,21.5 26,20.4 26.6,19 C27.2,17.6 27.5,16.1 27.5,14.4 C27.5,10.9 26.4,8.4 24.1,6.7 C21.8,5 18.4,4.1 13.9,4.1 L5,4.1 L5,53 L0,53 L0,0 L13.9,0 C20,0 24.6,1.2 27.7,3.6 C30.8,6 32.4,9.6 32.4,14.3 C32.4,16.4 32,18.3 31.3,20 C30.6,21.7 29.5,23.2 28.2,24.5 C26.9,25.8 25.2,26.8 23.4,27.7 C21.9,28.3 20.3,28.8 18.5,29.1 C18.7,29.3 18.9,29.5 19.1,29.8 L37.7,53.1 Z M9.6,28.4 C10.7,28.4 13,28.5 13.6,28.8 C14.2,29.1 14.7,29.5 15.2,30.1 L31.8,51.1 C32,51.4 32.2,51.6 32.4,51.7 C32.6,51.8 32.8,51.9 33.1,51.9 L35.1,51.9 L18,30.5 C17.6,29.9 17.1,29.5 16.6,29.2 L15.1,28.3 L16.9,28.1 C19.1,27.9 21.1,27.4 22.8,26.6 C24.5,25.8 26,24.9 27.3,23.7 C28.5,22.5 29.5,21.2 30.1,19.6 C30.7,18 31.1,16.3 31.1,14.4 C31.1,10.1 29.7,6.9 26.9,4.7 C24.1,2.5 19.7,1.4 13.9,1.4 L1.3,1.4 L1.3,51.9 L3.8,51.9 L3.8,2.9 L13.9,2.9 C18.6,2.9 22.3,3.8 24.8,5.7 C27.4,7.6 28.7,10.5 28.7,14.4 C28.7,16.3 28.3,18 27.7,19.5 C27,21 26,22.3 24.6,23.4 C23.3,24.5 21.7,25.3 19.8,25.9 C17.9,26.5 15.8,26.8 13.4,26.8 L11.2,26.8 C11.1,26.8 11,26.8 10.3,26.8 C10,26.8 9.7,26.8 9.6,28.4 Z" id="Shape"></path>
                    </g>
                    <g transform="translate(189.400000, 0.200000)">
                        <path d="M41.4,44.3 C41.6,44.3 41.9,44.4 42,44.6 L43.5,46.2 C42.4,47.3 41.3,48.4 40,49.3 C38.7,50.2 37.3,51 35.8,51.6 C34.3,52.2 32.6,52.7 30.9,53.1 C29.1,53.5 27.1,53.6 25,53.6 C21.4,53.6 18.1,53 15.1,51.7 C12.1,50.4 9.5,48.7 7.4,46.3 C5.3,44 3.6,41.2 2.4,37.9 C1.2,34.6 0.6,31 0.6,27 C0.6,23.1 1.2,19.5 2.5,16.2 C3.7,12.9 5.5,10.2 7.7,7.8 C9.9,5.5 12.6,3.7 15.7,2.4 C18.8,1.1 22.3,0.5 26,0.5 C27.9,0.5 29.6,0.6 31.2,0.9 C32.8,1.2 34.2,1.6 35.6,2.1 C37,2.6 38.2,3.3 39.4,4.1 C40.6,4.9 41.8,5.8 42.9,6.8 L41.8,8.4 C41.6,8.7 41.3,8.8 40.9,8.8 C40.7,8.8 40.4,8.7 40.1,8.4 C39.8,8.1 39.3,7.8 38.8,7.4 C38.3,7 37.6,6.6 36.9,6.2 C36.2,5.7 35.3,5.3 34.2,5 C33.2,4.6 32,4.3 30.6,4 C29.3,3.7 27.7,3.6 26,3.6 C22.8,3.6 19.9,4.1 17.3,5.2 C14.7,6.3 12.4,7.8 10.5,9.9 C8.6,11.9 7.1,14.4 6,17.2 C4.9,20 4.4,23.3 4.4,26.9 C4.4,30.6 4.9,33.8 6,36.7 C7.1,39.6 8.5,42 10.4,44 C12.3,46 14.5,47.5 17,48.6 C19.5,49.7 22.3,50.2 25.2,50.2 C27.1,50.2 28.7,50.1 30.2,49.8 C31.7,49.6 33,49.2 34.2,48.7 C35.4,48.2 36.6,47.6 37.6,46.9 C38.7,46.2 39.7,45.4 40.7,44.4 C40.8,44.3 40.9,44.2 41,44.2 C41.1,44.4 41.3,44.3 41.4,44.3 Z" id="Path"></path>
                        <path d="M24.9,54.3 C21.2,54.3 17.8,53.6 14.8,52.4 C11.7,51.1 9.1,49.3 6.9,46.9 C4.7,44.5 3,41.7 1.8,38.3 C0.6,35 0,31.2 0,27.2 C0,23.2 0.6,19.5 1.9,16.2 C3.2,12.9 5,10 7.2,7.6 C9.5,5.2 12.3,3.3 15.4,2 C18.6,0.7 22.1,0 26,0 C27.9,0 29.7,0.1 31.3,0.4 C32.9,0.7 34.4,1.1 35.8,1.6 C37.2,2.1 38.5,2.8 39.7,3.6 C40.9,4.4 42.1,5.3 43.3,6.4 L43.7,6.8 L42.3,8.9 C42.1,9.2 41.7,9.6 40.9,9.6 C40.5,9.6 40.2,9.4 39.7,9.1 C39.4,8.8 38.9,8.5 38.4,8.2 C37.9,7.8 37.3,7.4 36.5,7 C35.8,6.6 34.9,6.2 33.9,5.8 C32.9,5.4 31.7,5.1 30.4,4.9 C29.1,4.7 27.6,4.5 25.9,4.5 C22.8,4.5 20,5 17.4,6.1 C14.9,7.2 12.6,8.7 10.8,10.6 C9,12.5 7.5,14.9 6.5,17.7 C5.5,20.5 4.9,23.7 4.9,27.1 C4.9,30.7 5.4,33.9 6.4,36.7 C7.4,39.5 8.8,41.9 10.6,43.8 C12.4,45.7 14.5,47.2 17,48.2 C19.4,49.2 22.1,49.7 25,49.7 C26.8,49.7 28.5,49.6 29.9,49.3 C31.3,49.1 32.6,48.7 33.8,48.2 C35,47.7 36.1,47.1 37.1,46.5 C38.1,45.8 39.1,45 40.1,44.1 C40.3,43.9 40.4,43.9 40.6,43.8 C41.1,43.5 41.9,43.6 42.3,44.1 L44.2,46.1 L43.8,46.5 C42.7,47.7 41.5,48.7 40.2,49.7 C38.9,50.6 37.5,51.5 35.9,52.1 C34.4,52.8 32.7,53.3 30.8,53.6 C29.1,54.1 27.1,54.3 24.9,54.3 Z M26,1.2 C22.3,1.2 18.9,1.8 15.9,3.1 C12.9,4.3 10.2,6.1 8.1,8.4 C5.9,10.7 4.2,13.4 3,16.6 C1.8,19.8 1.2,23.3 1.2,27.2 C1.2,31.1 1.8,34.7 3,37.9 C4.2,41.1 5.8,43.8 7.9,46.1 C10,48.3 12.5,50.1 15.4,51.3 C18.3,52.5 21.5,53.1 25,53.1 C27.1,53.1 29,52.9 30.8,52.6 C32.5,52.3 34.2,51.8 35.6,51.1 C37.1,50.5 38.4,49.7 39.6,48.8 C40.7,48 41.7,47.1 42.6,46.2 L41.5,45 C41.4,44.9 41.3,44.9 41.2,45 C41.1,45 41,45.1 40.9,45.2 C39.9,46.1 38.8,47 37.7,47.7 C36.6,48.4 35.4,49.1 34.2,49.6 C32.9,50.1 31.5,50.5 30.1,50.7 C28.6,50.9 26.9,51.1 25,51.1 C22,51.1 19.1,50.5 16.5,49.5 C13.9,48.4 11.6,46.8 9.7,44.8 C7.8,42.8 6.3,40.2 5.2,37.3 C4.1,34.4 3.6,31 3.6,27.3 C3.6,23.7 4.1,20.4 5.2,17.4 C6.3,14.5 7.8,11.9 9.8,9.9 C11.8,7.8 14.1,6.2 16.8,5.1 C19.5,4 22.5,3.4 25.7,3.4 C27.4,3.4 29,3.5 30.4,3.8 C31.8,4.1 33,4.4 34.1,4.8 C35.2,5.2 36.1,5.6 36.9,6.1 C37.7,6.6 38.3,7 38.8,7.4 C39.3,7.8 39.8,8.1 40.1,8.4 C40.4,8.7 40.6,8.7 40.6,8.7 C40.9,8.7 41,8.6 41,8.5 L41.8,7.3 C40.8,6.4 39.8,5.7 38.8,5 C37.6,4.2 36.4,3.6 35.1,3.1 C33.8,2.6 32.3,2.2 30.8,1.9 C29.5,1.4 27.8,1.2 26,1.2 Z" id="Shape"></path>
                    </g>
                    <g transform="translate(241.800000, 0.800000)">
                        <polygon id="Path" points="31.7 0.6 31.7 3.7 4.4 3.7 4.4 24.7 27.1 24.7 27.1 27.7 4.4 27.7 4.4 49.3 31.7 49.3 31.7 52.4 0.6 52.4 0.6 0.6"></polygon>
                        <path d="M32.3,53.1 L0,53.1 L0,0 L32.3,0 L32.3,4.3 L5,4.3 L5,24 L27.7,24 L27.7,28.3 L5,28.3 L5,48.7 L32.3,48.7 L32.3,53.1 Z M1.2,51.9 L31.1,51.9 L31.1,50 L3.8,50 L3.8,27.1 L26.5,27.1 L26.5,25.3 L3.8,25.3 L3.8,3.1 L31.1,3.1 L31.1,1.2 L1.2,1.2 L1.2,51.9 Z" id="Shape"></path>
                    </g>
                    <polygon id="Path" points="320 0.8 320 8.7 296.5 8.7 296.5 24.4 316.3 24.4 316.3 32.3 296.5 32.3 296.5 53.9 286.6 53.9 286.6 0.9 320 0.9"></polygon>
                    <path d="M377.5,27.3 C377.5,31.2 376.9,34.8 375.6,38.1 C374.3,41.4 372.5,44.3 370.1,46.7 C367.8,49.1 364.9,51 361.6,52.4 C358.3,53.8 354.6,54.4 350.6,54.4 C346.6,54.4 342.9,53.7 339.6,52.4 C336.3,51 333.5,49.2 331.1,46.7 C328.7,44.3 326.9,41.4 325.6,38.1 C324.3,34.8 323.7,31.2 323.7,27.3 C323.7,23.4 324.3,19.8 325.6,16.5 C326.9,13.2 328.7,10.3 331.1,7.9 C333.5,5.5 336.3,3.6 339.6,2.2 C342.9,0.8 346.6,0.2 350.6,0.2 C354.6,0.2 358.3,0.9 361.6,2.3 C364.9,3.7 367.7,5.6 370.1,8 C372.4,10.4 374.3,13.3 375.6,16.6 C376.8,19.8 377.5,23.4 377.5,27.3 Z M367.4,27.3 C367.4,24.4 367,21.8 366.2,19.5 C365.4,17.2 364.3,15.2 362.9,13.6 C361.5,12 359.7,10.8 357.6,9.9 C355.5,9 353.2,8.6 350.6,8.6 C348,8.6 345.7,9 343.6,9.9 C341.5,10.8 339.8,12 338.3,13.6 C336.8,15.2 335.7,17.2 334.9,19.5 C334.1,21.8 333.7,24.4 333.7,27.3 C333.7,30.2 334.1,32.8 334.9,35.1 C335.7,37.4 336.8,39.4 338.3,41 C339.8,42.6 341.5,43.8 343.6,44.7 C345.7,45.6 348,46 350.6,46 C353.2,46 355.5,45.6 357.6,44.7 C359.7,43.8 361.4,42.6 362.9,41 C364.3,39.4 365.4,37.4 366.2,35.1 C367,32.8 367.4,30.2 367.4,27.3 Z" id="Shape"></path>
                    <path d="M398.1,26.1 L400.4,26.1 C402.3,26.1 403.9,25.9 405.3,25.4 C406.7,24.9 407.8,24.3 408.7,23.5 C409.6,22.7 410.3,21.7 410.7,20.6 C411.1,19.5 411.4,18.2 411.4,16.9 C411.4,14.2 410.5,12.1 408.7,10.7 C406.9,9.3 404.2,8.5 400.6,8.5 L394.2,8.5 L394.2,26.1 L394.2,33.2 L394.2,53.9 L384.3,53.9 L384.3,0.9 L400.5,0.9 C404.1,0.9 407.2,1.3 409.8,2 C412.4,2.7 414.5,3.8 416.1,5.1 C417.7,6.4 419,8.1 419.7,9.9 C420.5,11.8 420.9,13.8 420.9,16.1 C420.9,17.9 420.6,19.6 420.1,21.2 C419.6,22.8 418.8,24.2 417.8,25.5 C416.8,26.8 415.6,27.9 414.1,28.9 C412.6,29.9 411,30.7 409.1,31.2 C410.3,31.9 411.4,32.9 412.3,34.2 L425.6,53.8 L416.7,53.8 C415.8,53.8 415.1,53.6 414.5,53.3 C413.9,53 413.4,52.5 413,51.8 C413,51.8 401.9,34.8 401.9,34.8 C401.6,34.4 401,33.5 400.4,33.4 C399.2,33.4 398,33.4 396.9,33.4 C396.9,33.4 396.9,27.4 396.9,27 C397,26.1 398.1,26.1 398.1,26.1 Z" id="Path"></path>
                    <path d="M454.6,46.6 C456.8,46.6 458.8,46.4 460.4,46 C462,45.6 463.6,45 465.1,44.3 L465.1,32.3 L458.5,32.3 C457.9,32.3 457.4,32.1 457,31.8 C456.6,31.4 456.4,31 456.4,30.5 L456.4,24.9 L474,24.9 L474,48.7 C472.7,49.7 471.3,50.5 469.8,51.2 C468.3,51.9 466.8,52.5 465.1,53 C463.4,53.5 461.7,53.8 459.8,54 C457.9,54.2 455.9,54.3 453.7,54.3 C449.8,54.3 446.3,53.6 443,52.3 C439.7,51 436.9,49.1 434.6,46.7 C432.2,44.3 430.4,41.4 429,38.1 C427.7,34.8 427,31.1 427,27.2 C427,23.2 427.6,19.6 428.9,16.2 C430.2,12.9 432,10 434.4,7.6 C436.8,5.2 439.7,3.3 443.1,2 C446.5,0.7 450.3,0 454.5,0 C458.8,0 462.6,0.6 465.7,1.9 C468.9,3.2 471.5,4.9 473.7,6.9 L470.8,11.4 C470.2,12.3 469.5,12.8 468.6,12.8 C468,12.8 467.4,12.6 466.8,12.2 C466,11.7 465.2,11.3 464.4,10.8 C463.6,10.3 462.7,9.9 461.7,9.6 C460.7,9.3 459.6,9 458.4,8.8 C457.2,8.6 455.7,8.5 454.1,8.5 C451.5,8.5 449.1,8.9 447,9.8 C444.9,10.7 443.1,11.9 441.6,13.6 C440.1,15.2 439,17.2 438.2,19.5 C437.4,21.8 437,24.4 437,27.2 C437,30.3 437.4,33 438.3,35.4 C439.2,37.8 440.4,39.8 441.9,41.4 C443.4,43 445.3,44.3 447.4,45.2 C449.5,46.1 452.1,46.6 454.6,46.6 Z" id="Path"></path>
                    <path d="M508.9,32.5 L492.8,32.5 L492.8,45.9 L516.2,45.9 L516.2,53.8 L482.8,53.8 L482.8,0.8 L516.2,0.8 L516.2,8.7 L492.7,8.7 L492.7,25 L511.2,25 L511.2,30.8 C511.2,30.8 511.1,32.5 508.9,32.5 Z" id="Path"></path>
                </g>
            </g>
        </g>
    </g>
</svg>