<svg width="80" height="80" viewBox="0 0 80 80" fill="none" xmlns="http://www.w3.org/2000/svg">
<path fill-rule="evenodd" clip-rule="evenodd" d="M8.26519 20.0995C2.82625 21.0586 -0.805438 26.2451 0.153594 31.6841L4.78421 57.9456C5.74324 63.3846 10.9298 67.0163 16.3688 66.0572L22.0133 65.0619V58.2924L15.2111 59.4918C13.3981 59.8115 11.6693 58.601 11.3496 56.788L6.71898 30.5264C6.3993 28.7134 7.60986 26.9846 9.42285 26.6649L48.8152 19.719C50.6281 19.3993 52.357 20.6099 52.6767 22.4228L54.5308 32.9383H61.3003L59.2421 21.2652C58.283 15.8262 53.0965 12.1946 47.6575 13.1536L8.26519 20.0995Z" fill="#A2ABC2"/>
<rect x="22.0132" y="32.9385" width="53.3333" height="40" rx="6.66667" stroke="#A2ABC2" stroke-width="6.66667"/>
<path d="M33.6799 60.605C30.3466 60.605 23.6799 70.605 23.6799 70.605H75.3466C75.3466 70.605 63.6799 50.605 58.6799 50.605C53.6799 50.605 42.0133 67.2716 42.0133 67.2716C38.6799 63.9383 37.0133 60.605 33.6799 60.605Z" fill="#A2ABC2"/>
<circle cx="37.0132" cy="47.9385" r="5" fill="#A2ABC2"/>
<rect x="63.3333" y="10.8335" width="16.6667" height="5" rx="2.5" fill="#A2ABC2"/>
<rect x="74.1667" y="5" width="16.6667" height="5" rx="2.5" transform="rotate(90 74.1667 5)" fill="#A2ABC2"/>
</svg>
