<?xml version="1.0" encoding="UTF-8"?>
<svg width="278px" height="93px" viewBox="0 0 278 93" version="1.1" xmlns="http://www.w3.org/2000/svg" xmlns:xlink="http://www.w3.org/1999/xlink">
    <title>you</title>
    <g id="Page-1" stroke="none" stroke-width="1" fill="none" fill-rule="evenodd">
        <g id="Artboard" transform="translate(-1200.000000, -880.000000)" fill="#6B7280" fill-rule="nonzero">
            <g id="you" transform="translate(1200.000000, 880.000000)">
                <path d="M133.5,13.2856958 C151.817125,13.2856958 166.714562,28.1834562 166.714562,46.5 C166.714562,64.8164792 151.817125,79.7145625 133.5,79.7145625 C115.183521,79.7145625 100.286083,64.8164792 100.286083,46.5 C100.286083,28.1834562 115.183521,13.2856958 133.5,13.2856958 Z M133.5,0 C107.823604,0 87,20.8231521 87,46.5 C87,72.1854375 107.823604,93 133.5,93 C159.177042,93 180,72.1770417 180,46.5 C180,20.8231521 159.177042,0 133.5,0 Z" id="Shape"></path>
                <path d="M277.91334,6.6451446 C277.91334,5.19515005 276.739893,4.00878796 275.306466,4.00878796 L267.460809,4.00878796 C266.279018,4.00878796 265.279534,4.82606205 264.966915,5.92454451 L264.966915,47.0780976 L264.853935,47.0780976 C264.853935,64.0386725 251.212943,77.8353883 234.443189,77.8353883 C217.674077,77.8353883 204.033085,64.0386725 204.033085,47.0780976 L204.033085,6.40787603 C203.911119,5.06333062 202.807643,4 201.45253,4 L193.606232,4 C192.172804,4 191,5.18636209 191,6.63635663 L191,47.0605088 L191,47.939305 L191.025677,47.939305 C191.486582,71.7980774 210.748947,91 234.443189,91 C258.137432,91 277.400438,71.7980774 277.860701,47.939305 L278,47.939305" id="Path"></path>
                <path d="M50.0266851,47.3726773 C70.455563,44.2758994 86.2341787,26.8706626 87,5.61419271 C86.8696884,4.80709957 86.2425237,4.15791372 85.4503833,4 L75.9061824,4 C74.7571295,4.27195823 73.8860318,5.31592195 73.8860318,6.55288062 L73.8860318,6.20197195 C72.762656,22.1070606 59.5617705,34.7047877 43.4957633,34.7047877 C27.4123597,34.7047877 14.2112175,22.0894718 13.1053664,6.16687787 C12.9486073,5.10537033 12.1561459,4.24563928 11.1286743,4 L1.41067115,4 C0.600842366,4.22809545 0.00870789573,4.96500686 0,5.85105686 C0.870783153,27.0110517 16.6058696,44.293424 36.9649057,47.3726773 L36.9649057,88.8418459 C37.191314,90.0698497 38.2536424,91 39.5337131,91 L47.3707679,91 C48.8075976,91 49.9831623,89.8156471 49.9831623,88.3681047" id="Path"></path>
            </g>
        </g>
    </g>
</svg>